<mxfile host="app.diagrams.net" modified="2023-06-14T11:06:12.288Z" agent="Mozilla/5.0 (Windows NT 10.0; Win64; x64) AppleWebKit/537.36 (KHTML, like Gecko) Chrome/114.0.0.0 Safari/537.36 Edg/114.0.1823.41" etag="vfE8vap-svUVjBbBalyo" version="21.3.8" type="device" pages="4">
  <diagram id="R5tKHXJCukcx-l2UWumd" name="GameComposite">
    <mxGraphModel dx="-939" dy="2074" grid="1" gridSize="10" guides="1" tooltips="1" connect="1" arrows="1" fold="1" page="1" pageScale="1" pageWidth="827" pageHeight="1169" math="0" shadow="0">
      <root>
        <mxCell id="0" />
        <mxCell id="1" parent="0" />
        <mxCell id="HYWczXIigkvVEfX9Qtzk-36" value="Main" style="shape=folder;fontStyle=1;spacingTop=10;tabWidth=40;tabHeight=14;tabPosition=left;html=1;whiteSpace=wrap;" parent="1" vertex="1">
          <mxGeometry x="3740" y="18" width="590" height="342" as="geometry" />
        </mxCell>
        <mxCell id="HYWczXIigkvVEfX9Qtzk-37" value="Game" style="swimlane;fontStyle=1;align=center;verticalAlign=top;childLayout=stackLayout;horizontal=1;startSize=26;horizontalStack=0;resizeParent=1;resizeParentMax=0;resizeLast=0;collapsible=1;marginBottom=0;whiteSpace=wrap;html=1;" parent="1" vertex="1">
          <mxGeometry x="3788.5" y="240" width="210" height="34" as="geometry" />
        </mxCell>
        <mxCell id="HYWczXIigkvVEfX9Qtzk-39" value="" style="line;strokeWidth=1;fillColor=none;align=left;verticalAlign=middle;spacingTop=-1;spacingLeft=3;spacingRight=3;rotatable=0;labelPosition=right;points=[];portConstraint=eastwest;strokeColor=inherit;" parent="HYWczXIigkvVEfX9Qtzk-37" vertex="1">
          <mxGeometry y="26" width="210" height="8" as="geometry" />
        </mxCell>
        <mxCell id="HYWczXIigkvVEfX9Qtzk-41" value="GamePanel" style="swimlane;fontStyle=1;align=center;verticalAlign=top;childLayout=stackLayout;horizontal=1;startSize=26;horizontalStack=0;resizeParent=1;resizeParentMax=0;resizeLast=0;collapsible=1;marginBottom=0;whiteSpace=wrap;html=1;" parent="1" vertex="1">
          <mxGeometry x="4060" y="170" width="260" height="34" as="geometry" />
        </mxCell>
        <mxCell id="HYWczXIigkvVEfX9Qtzk-43" value="" style="line;strokeWidth=1;fillColor=none;align=left;verticalAlign=middle;spacingTop=-1;spacingLeft=3;spacingRight=3;rotatable=0;labelPosition=right;points=[];portConstraint=eastwest;strokeColor=inherit;" parent="HYWczXIigkvVEfX9Qtzk-41" vertex="1">
          <mxGeometry y="26" width="260" height="8" as="geometry" />
        </mxCell>
        <mxCell id="HYWczXIigkvVEfX9Qtzk-45" value="GameWindow" style="swimlane;fontStyle=1;align=center;verticalAlign=top;childLayout=stackLayout;horizontal=1;startSize=26;horizontalStack=0;resizeParent=1;resizeParentMax=0;resizeLast=0;collapsible=1;marginBottom=0;whiteSpace=wrap;html=1;" parent="1" vertex="1">
          <mxGeometry x="4065" y="300" width="250" height="34" as="geometry" />
        </mxCell>
        <mxCell id="HYWczXIigkvVEfX9Qtzk-46" value="" style="line;strokeWidth=1;fillColor=none;align=left;verticalAlign=middle;spacingTop=-1;spacingLeft=3;spacingRight=3;rotatable=0;labelPosition=right;points=[];portConstraint=eastwest;strokeColor=inherit;" parent="HYWczXIigkvVEfX9Qtzk-45" vertex="1">
          <mxGeometry y="26" width="250" height="8" as="geometry" />
        </mxCell>
        <mxCell id="HYWczXIigkvVEfX9Qtzk-48" value="Main" style="swimlane;fontStyle=1;align=center;verticalAlign=top;childLayout=stackLayout;horizontal=1;startSize=26;horizontalStack=0;resizeParent=1;resizeParentMax=0;resizeLast=0;collapsible=1;marginBottom=0;whiteSpace=wrap;html=1;" parent="1" vertex="1">
          <mxGeometry x="3768.5" y="48" width="250" height="86" as="geometry" />
        </mxCell>
        <mxCell id="HYWczXIigkvVEfX9Qtzk-49" value="game:Game" style="text;strokeColor=none;fillColor=none;align=left;verticalAlign=top;spacingLeft=4;spacingRight=4;overflow=hidden;rotatable=0;points=[[0,0.5],[1,0.5]];portConstraint=eastwest;whiteSpace=wrap;html=1;" parent="HYWczXIigkvVEfX9Qtzk-48" vertex="1">
          <mxGeometry y="26" width="250" height="26" as="geometry" />
        </mxCell>
        <mxCell id="HYWczXIigkvVEfX9Qtzk-50" value="" style="line;strokeWidth=1;fillColor=none;align=left;verticalAlign=middle;spacingTop=-1;spacingLeft=3;spacingRight=3;rotatable=0;labelPosition=right;points=[];portConstraint=eastwest;strokeColor=inherit;" parent="HYWczXIigkvVEfX9Qtzk-48" vertex="1">
          <mxGeometry y="52" width="250" height="8" as="geometry" />
        </mxCell>
        <mxCell id="HYWczXIigkvVEfX9Qtzk-51" value="+main(String[]):void" style="text;strokeColor=none;fillColor=none;align=left;verticalAlign=top;spacingLeft=4;spacingRight=4;overflow=hidden;rotatable=0;points=[[0,0.5],[1,0.5]];portConstraint=eastwest;whiteSpace=wrap;html=1;" parent="HYWczXIigkvVEfX9Qtzk-48" vertex="1">
          <mxGeometry y="60" width="250" height="26" as="geometry" />
        </mxCell>
        <mxCell id="HYWczXIigkvVEfX9Qtzk-52" value="1" style="endArrow=open;html=1;endSize=12;startArrow=diamondThin;startSize=14;startFill=1;edgeStyle=orthogonalEdgeStyle;align=left;verticalAlign=bottom;rounded=0;" parent="1" source="HYWczXIigkvVEfX9Qtzk-37" target="HYWczXIigkvVEfX9Qtzk-41" edge="1">
          <mxGeometry x="-1" y="3" relative="1" as="geometry">
            <mxPoint x="3800" y="451" as="sourcePoint" />
            <mxPoint x="3800" y="655" as="targetPoint" />
          </mxGeometry>
        </mxCell>
        <mxCell id="HYWczXIigkvVEfX9Qtzk-53" value="1" style="endArrow=open;html=1;endSize=12;startArrow=diamondThin;startSize=14;startFill=1;edgeStyle=orthogonalEdgeStyle;align=left;verticalAlign=bottom;rounded=0;" parent="1" source="HYWczXIigkvVEfX9Qtzk-37" target="HYWczXIigkvVEfX9Qtzk-45" edge="1">
          <mxGeometry x="-1" y="3" relative="1" as="geometry">
            <mxPoint x="3810" y="461" as="sourcePoint" />
            <mxPoint x="3810" y="665" as="targetPoint" />
          </mxGeometry>
        </mxCell>
        <mxCell id="HYWczXIigkvVEfX9Qtzk-54" value="1" style="endArrow=open;html=1;endSize=12;startArrow=diamondThin;startSize=14;startFill=1;edgeStyle=orthogonalEdgeStyle;align=left;verticalAlign=bottom;rounded=0;" parent="1" source="HYWczXIigkvVEfX9Qtzk-48" target="HYWczXIigkvVEfX9Qtzk-37" edge="1">
          <mxGeometry x="-1" y="-1007" relative="1" as="geometry">
            <mxPoint x="3875.9799999999996" y="162" as="sourcePoint" />
            <mxPoint x="4110.98" y="307" as="targetPoint" />
            <mxPoint x="77" y="-386" as="offset" />
          </mxGeometry>
        </mxCell>
        <mxCell id="HYWczXIigkvVEfX9Qtzk-55" value="" style="shape=folder;fontStyle=1;spacingTop=10;tabWidth=40;tabHeight=14;tabPosition=left;html=1;whiteSpace=wrap;" parent="1" vertex="1">
          <mxGeometry x="4360" y="273" width="490" height="180" as="geometry" />
        </mxCell>
        <mxCell id="HYWczXIigkvVEfX9Qtzk-56" value="MouseInputs" style="swimlane;fontStyle=1;align=center;verticalAlign=top;childLayout=stackLayout;horizontal=1;startSize=26;horizontalStack=0;resizeParent=1;resizeParentMax=0;resizeLast=0;collapsible=1;marginBottom=0;whiteSpace=wrap;html=1;" parent="1" vertex="1">
          <mxGeometry x="4625" y="313" width="195" height="34" as="geometry" />
        </mxCell>
        <mxCell id="HYWczXIigkvVEfX9Qtzk-58" value="" style="line;strokeWidth=1;fillColor=none;align=left;verticalAlign=middle;spacingTop=-1;spacingLeft=3;spacingRight=3;rotatable=0;labelPosition=right;points=[];portConstraint=eastwest;strokeColor=inherit;" parent="HYWczXIigkvVEfX9Qtzk-56" vertex="1">
          <mxGeometry y="26" width="195" height="8" as="geometry" />
        </mxCell>
        <mxCell id="HYWczXIigkvVEfX9Qtzk-66" style="edgeStyle=orthogonalEdgeStyle;rounded=0;orthogonalLoop=1;jettySize=auto;html=1;" parent="1" source="HYWczXIigkvVEfX9Qtzk-67" target="HYWczXIigkvVEfX9Qtzk-76" edge="1">
          <mxGeometry relative="1" as="geometry">
            <Array as="points">
              <mxPoint x="4500" y="373" />
              <mxPoint x="4605" y="373" />
            </Array>
          </mxGeometry>
        </mxCell>
        <mxCell id="HYWczXIigkvVEfX9Qtzk-67" value="KeyboardInputs" style="swimlane;fontStyle=1;align=center;verticalAlign=top;childLayout=stackLayout;horizontal=1;startSize=26;horizontalStack=0;resizeParent=1;resizeParentMax=0;resizeLast=0;collapsible=1;marginBottom=0;whiteSpace=wrap;html=1;" parent="1" vertex="1">
          <mxGeometry x="4400" y="313" width="210" height="34" as="geometry" />
        </mxCell>
        <mxCell id="HYWczXIigkvVEfX9Qtzk-69" value="" style="line;strokeWidth=1;fillColor=none;align=left;verticalAlign=middle;spacingTop=-1;spacingLeft=3;spacingRight=3;rotatable=0;labelPosition=right;points=[];portConstraint=eastwest;strokeColor=inherit;" parent="HYWczXIigkvVEfX9Qtzk-67" vertex="1">
          <mxGeometry y="26" width="210" height="8" as="geometry" />
        </mxCell>
        <mxCell id="HYWczXIigkvVEfX9Qtzk-76" value="&amp;lt;enum&amp;gt;&amp;nbsp;Direction" style="swimlane;fontStyle=1;align=center;verticalAlign=top;childLayout=stackLayout;horizontal=1;startSize=26;horizontalStack=0;resizeParent=1;resizeParentMax=0;resizeLast=0;collapsible=1;marginBottom=0;whiteSpace=wrap;html=1;" parent="1" vertex="1">
          <mxGeometry x="4515" y="403" width="180" height="34" as="geometry" />
        </mxCell>
        <mxCell id="HYWczXIigkvVEfX9Qtzk-78" value="" style="line;strokeWidth=1;fillColor=none;align=left;verticalAlign=middle;spacingTop=-1;spacingLeft=3;spacingRight=3;rotatable=0;labelPosition=right;points=[];portConstraint=eastwest;strokeColor=inherit;" parent="HYWczXIigkvVEfX9Qtzk-76" vertex="1">
          <mxGeometry y="26" width="180" height="8" as="geometry" />
        </mxCell>
        <mxCell id="HYWczXIigkvVEfX9Qtzk-80" style="edgeStyle=orthogonalEdgeStyle;rounded=0;orthogonalLoop=1;jettySize=auto;html=1;" parent="1" source="HYWczXIigkvVEfX9Qtzk-56" target="HYWczXIigkvVEfX9Qtzk-76" edge="1">
          <mxGeometry relative="1" as="geometry">
            <Array as="points">
              <mxPoint x="4740" y="373" />
              <mxPoint x="4605" y="373" />
            </Array>
            <mxPoint x="4740" y="399" as="sourcePoint" />
          </mxGeometry>
        </mxCell>
        <mxCell id="HYWczXIigkvVEfX9Qtzk-81" value="1" style="endArrow=open;html=1;endSize=12;startArrow=diamondThin;startSize=14;startFill=1;edgeStyle=orthogonalEdgeStyle;align=left;verticalAlign=bottom;rounded=0;" parent="1" source="HYWczXIigkvVEfX9Qtzk-41" target="HYWczXIigkvVEfX9Qtzk-67" edge="1">
          <mxGeometry x="-1" y="3" relative="1" as="geometry">
            <mxPoint x="3905" y="377" as="sourcePoint" />
            <mxPoint x="4070" y="482" as="targetPoint" />
            <Array as="points">
              <mxPoint x="4270" y="70" />
              <mxPoint x="4520" y="70" />
            </Array>
          </mxGeometry>
        </mxCell>
        <mxCell id="HYWczXIigkvVEfX9Qtzk-82" value="1" style="endArrow=open;html=1;endSize=12;startArrow=diamondThin;startSize=14;startFill=1;edgeStyle=orthogonalEdgeStyle;align=left;verticalAlign=bottom;rounded=0;" parent="1" source="HYWczXIigkvVEfX9Qtzk-41" target="HYWczXIigkvVEfX9Qtzk-56" edge="1">
          <mxGeometry x="-1" y="3" relative="1" as="geometry">
            <mxPoint x="4140" y="180" as="sourcePoint" />
            <mxPoint x="4550" y="220" as="targetPoint" />
            <Array as="points">
              <mxPoint x="4140" y="70" />
              <mxPoint x="4743" y="70" />
            </Array>
          </mxGeometry>
        </mxCell>
        <mxCell id="HYWczXIigkvVEfX9Qtzk-83" value="" style="shape=folder;fontStyle=1;spacingTop=10;tabWidth=40;tabHeight=14;tabPosition=left;html=1;whiteSpace=wrap;" parent="1" vertex="1">
          <mxGeometry x="4080" y="-160" width="290" height="150" as="geometry" />
        </mxCell>
        <mxCell id="HYWczXIigkvVEfX9Qtzk-88" value="&amp;lt;enum&amp;gt;&amp;nbsp;GameState" style="swimlane;fontStyle=1;align=center;verticalAlign=top;childLayout=stackLayout;horizontal=1;startSize=26;horizontalStack=0;resizeParent=1;resizeParentMax=0;resizeLast=0;collapsible=1;marginBottom=0;whiteSpace=wrap;html=1;" parent="1" vertex="1">
          <mxGeometry x="4140" y="-68" width="170" height="34" as="geometry">
            <mxRectangle x="900" y="840" width="110" height="40" as="alternateBounds" />
          </mxGeometry>
        </mxCell>
        <mxCell id="HYWczXIigkvVEfX9Qtzk-90" value="" style="line;strokeWidth=1;fillColor=none;align=left;verticalAlign=middle;spacingTop=-1;spacingLeft=3;spacingRight=3;rotatable=0;labelPosition=right;points=[];portConstraint=eastwest;strokeColor=inherit;" parent="HYWczXIigkvVEfX9Qtzk-88" vertex="1">
          <mxGeometry y="26" width="170" height="8" as="geometry" />
        </mxCell>
        <mxCell id="HYWczXIigkvVEfX9Qtzk-92" value="&amp;lt;enum&amp;gt;&amp;nbsp;MouseState" style="swimlane;fontStyle=1;align=center;verticalAlign=top;childLayout=stackLayout;horizontal=1;startSize=26;horizontalStack=0;resizeParent=1;resizeParentMax=0;resizeLast=0;collapsible=1;marginBottom=0;whiteSpace=wrap;html=1;" parent="1" vertex="1">
          <mxGeometry x="4135" y="-115" width="180" height="34" as="geometry">
            <mxRectangle x="900" y="840" width="110" height="40" as="alternateBounds" />
          </mxGeometry>
        </mxCell>
        <mxCell id="HYWczXIigkvVEfX9Qtzk-94" value="" style="line;strokeWidth=1;fillColor=none;align=left;verticalAlign=middle;spacingTop=-1;spacingLeft=3;spacingRight=3;rotatable=0;labelPosition=right;points=[];portConstraint=eastwest;strokeColor=inherit;" parent="HYWczXIigkvVEfX9Qtzk-92" vertex="1">
          <mxGeometry y="26" width="180" height="8" as="geometry" />
        </mxCell>
        <mxCell id="HYWczXIigkvVEfX9Qtzk-97" value="Use" style="endArrow=open;endSize=12;dashed=1;html=1;rounded=0;exitX=0;exitY=0;exitDx=265;exitDy=14;exitPerimeter=0;" parent="1" source="HYWczXIigkvVEfX9Qtzk-55" target="HYWczXIigkvVEfX9Qtzk-83" edge="1">
          <mxGeometry width="160" relative="1" as="geometry">
            <mxPoint x="4640" y="940" as="sourcePoint" />
            <mxPoint x="4800" y="940" as="targetPoint" />
            <Array as="points">
              <mxPoint x="4625" y="-85" />
            </Array>
          </mxGeometry>
        </mxCell>
        <mxCell id="HYWczXIigkvVEfX9Qtzk-110" value="" style="shape=folder;fontStyle=1;spacingTop=10;tabWidth=40;tabHeight=14;tabPosition=left;html=1;whiteSpace=wrap;" parent="1" vertex="1">
          <mxGeometry x="4040" y="380" width="230" height="190" as="geometry" />
        </mxCell>
        <mxCell id="HYWczXIigkvVEfX9Qtzk-111" value="GameAudioPlayer" style="swimlane;fontStyle=1;align=center;verticalAlign=top;childLayout=stackLayout;horizontal=1;startSize=26;horizontalStack=0;resizeParent=1;resizeParentMax=0;resizeLast=0;collapsible=1;marginBottom=0;whiteSpace=wrap;html=1;" parent="1" vertex="1">
          <mxGeometry x="4063.5" y="429" width="170" height="34" as="geometry" />
        </mxCell>
        <mxCell id="HYWczXIigkvVEfX9Qtzk-113" value="" style="line;strokeWidth=1;fillColor=none;align=left;verticalAlign=middle;spacingTop=-1;spacingLeft=3;spacingRight=3;rotatable=0;labelPosition=right;points=[];portConstraint=eastwest;strokeColor=inherit;" parent="HYWczXIigkvVEfX9Qtzk-111" vertex="1">
          <mxGeometry y="26" width="170" height="8" as="geometry" />
        </mxCell>
        <mxCell id="HYWczXIigkvVEfX9Qtzk-115" value="&amp;lt;enum&amp;gt;GameAudio" style="swimlane;fontStyle=1;align=center;verticalAlign=top;childLayout=stackLayout;horizontal=1;startSize=26;horizontalStack=0;resizeParent=1;resizeParentMax=0;resizeLast=0;collapsible=1;marginBottom=0;whiteSpace=wrap;html=1;" parent="1" vertex="1">
          <mxGeometry x="4068.5" y="521" width="160" height="34" as="geometry" />
        </mxCell>
        <mxCell id="HYWczXIigkvVEfX9Qtzk-117" value="" style="line;strokeWidth=1;fillColor=none;align=left;verticalAlign=middle;spacingTop=-1;spacingLeft=3;spacingRight=3;rotatable=0;labelPosition=right;points=[];portConstraint=eastwest;strokeColor=inherit;" parent="HYWczXIigkvVEfX9Qtzk-115" vertex="1">
          <mxGeometry y="26" width="160" height="8" as="geometry" />
        </mxCell>
        <mxCell id="HYWczXIigkvVEfX9Qtzk-119" value="1" style="endArrow=open;html=1;endSize=12;startArrow=diamondThin;startSize=14;startFill=1;edgeStyle=orthogonalEdgeStyle;align=left;verticalAlign=bottom;rounded=0;" parent="1" source="HYWczXIigkvVEfX9Qtzk-37" target="HYWczXIigkvVEfX9Qtzk-111" edge="1">
          <mxGeometry x="-1" y="3" relative="1" as="geometry">
            <mxPoint x="3780" y="402" as="sourcePoint" />
            <mxPoint x="4070" y="482" as="targetPoint" />
            <Array as="points">
              <mxPoint x="3990" y="446" />
            </Array>
          </mxGeometry>
        </mxCell>
        <mxCell id="HYWczXIigkvVEfX9Qtzk-120" value="Use" style="endArrow=open;endSize=12;dashed=1;html=1;rounded=0;" parent="1" source="HYWczXIigkvVEfX9Qtzk-111" target="HYWczXIigkvVEfX9Qtzk-115" edge="1">
          <mxGeometry width="160" relative="1" as="geometry">
            <mxPoint x="4883" y="454" as="sourcePoint" />
            <mxPoint x="4882" y="550" as="targetPoint" />
          </mxGeometry>
        </mxCell>
        <mxCell id="HYWczXIigkvVEfX9Qtzk-121" value="" style="shape=folder;fontStyle=1;spacingTop=10;tabWidth=40;tabHeight=14;tabPosition=left;html=1;whiteSpace=wrap;" parent="1" vertex="1">
          <mxGeometry x="3440" y="430" width="440" height="250" as="geometry" />
        </mxCell>
        <mxCell id="HYWczXIigkvVEfX9Qtzk-167" value="GameCredits" style="swimlane;fontStyle=1;align=center;verticalAlign=top;childLayout=stackLayout;horizontal=1;startSize=26;horizontalStack=0;resizeParent=1;resizeParentMax=0;resizeLast=0;collapsible=1;marginBottom=0;whiteSpace=wrap;html=1;" parent="1" vertex="1">
          <mxGeometry x="3463.63" y="483" width="212" height="34" as="geometry" />
        </mxCell>
        <mxCell id="HYWczXIigkvVEfX9Qtzk-169" value="" style="line;strokeWidth=1;fillColor=none;align=left;verticalAlign=middle;spacingTop=-1;spacingLeft=3;spacingRight=3;rotatable=0;labelPosition=right;points=[];portConstraint=eastwest;strokeColor=inherit;" parent="HYWczXIigkvVEfX9Qtzk-167" vertex="1">
          <mxGeometry y="26" width="212" height="8" as="geometry" />
        </mxCell>
        <mxCell id="HYWczXIigkvVEfX9Qtzk-171" value="" style="endArrow=open;startArrow=circlePlus;endFill=0;startFill=0;endSize=8;html=1;rounded=0;" parent="1" source="HYWczXIigkvVEfX9Qtzk-167" target="HYWczXIigkvVEfX9Qtzk-172" edge="1">
          <mxGeometry width="160" relative="1" as="geometry">
            <mxPoint x="3410.63" y="565" as="sourcePoint" />
            <mxPoint x="3580.645780730897" y="898.9999999999995" as="targetPoint" />
          </mxGeometry>
        </mxCell>
        <mxCell id="HYWczXIigkvVEfX9Qtzk-172" value="GameCredits.ShowGameCharacter" style="swimlane;fontStyle=1;align=center;verticalAlign=top;childLayout=stackLayout;horizontal=1;startSize=26;horizontalStack=0;resizeParent=1;resizeParentMax=0;resizeLast=0;collapsible=1;marginBottom=0;whiteSpace=wrap;html=1;" parent="1" vertex="1">
          <mxGeometry x="3455" y="575" width="229.25" height="34" as="geometry" />
        </mxCell>
        <mxCell id="HYWczXIigkvVEfX9Qtzk-174" value="" style="line;strokeWidth=1;fillColor=none;align=left;verticalAlign=middle;spacingTop=-1;spacingLeft=3;spacingRight=3;rotatable=0;labelPosition=right;points=[];portConstraint=eastwest;strokeColor=inherit;" parent="HYWczXIigkvVEfX9Qtzk-172" vertex="1">
          <mxGeometry y="26" width="229.25" height="8" as="geometry" />
        </mxCell>
        <mxCell id="HYWczXIigkvVEfX9Qtzk-176" value="1" style="endArrow=open;html=1;endSize=12;startArrow=diamondThin;startSize=14;startFill=1;edgeStyle=orthogonalEdgeStyle;align=left;verticalAlign=bottom;rounded=0;" parent="1" source="HYWczXIigkvVEfX9Qtzk-37" target="HYWczXIigkvVEfX9Qtzk-167" edge="1">
          <mxGeometry x="-1" y="3" relative="1" as="geometry">
            <mxPoint x="3790" y="556" as="sourcePoint" />
            <mxPoint x="3790" y="755" as="targetPoint" />
            <Array as="points">
              <mxPoint x="3580" y="257" />
            </Array>
          </mxGeometry>
        </mxCell>
        <mxCell id="HYWczXIigkvVEfX9Qtzk-178" value="GameOptions" style="swimlane;fontStyle=1;align=center;verticalAlign=top;childLayout=stackLayout;horizontal=1;startSize=26;horizontalStack=0;resizeParent=1;resizeParentMax=0;resizeLast=0;collapsible=1;marginBottom=0;whiteSpace=wrap;html=1;" parent="1" vertex="1">
          <mxGeometry x="3731.13" y="541" width="118.87" height="34" as="geometry" />
        </mxCell>
        <mxCell id="HYWczXIigkvVEfX9Qtzk-180" value="" style="line;strokeWidth=1;fillColor=none;align=left;verticalAlign=middle;spacingTop=-1;spacingLeft=3;spacingRight=3;rotatable=0;labelPosition=right;points=[];portConstraint=eastwest;strokeColor=inherit;" parent="HYWczXIigkvVEfX9Qtzk-178" vertex="1">
          <mxGeometry y="26" width="118.87" height="8" as="geometry" />
        </mxCell>
        <mxCell id="HYWczXIigkvVEfX9Qtzk-182" value="1" style="endArrow=open;html=1;endSize=12;startArrow=diamondThin;startSize=14;startFill=1;edgeStyle=orthogonalEdgeStyle;align=left;verticalAlign=bottom;rounded=0;" parent="1" source="HYWczXIigkvVEfX9Qtzk-37" target="HYWczXIigkvVEfX9Qtzk-178" edge="1">
          <mxGeometry x="-1" y="3" relative="1" as="geometry">
            <mxPoint x="3695" y="377" as="sourcePoint" />
            <mxPoint x="3366" y="753" as="targetPoint" />
            <Array as="points">
              <mxPoint x="3940" y="560" />
            </Array>
          </mxGeometry>
        </mxCell>
        <mxCell id="HYWczXIigkvVEfX9Qtzk-183" value="" style="shape=folder;fontStyle=1;spacingTop=10;tabWidth=40;tabHeight=14;tabPosition=left;html=1;whiteSpace=wrap;" parent="1" vertex="1">
          <mxGeometry x="3479.51" y="80" width="196.12" height="120" as="geometry" />
        </mxCell>
        <mxCell id="HYWczXIigkvVEfX9Qtzk-192" value="GameAudioOptions" style="swimlane;fontStyle=1;align=center;verticalAlign=top;childLayout=stackLayout;horizontal=1;startSize=26;horizontalStack=0;resizeParent=1;resizeParentMax=0;resizeLast=0;collapsible=1;marginBottom=0;whiteSpace=wrap;html=1;" parent="1" vertex="1">
          <mxGeometry x="3504.3900000000003" y="126" width="146.37" height="34" as="geometry" />
        </mxCell>
        <mxCell id="HYWczXIigkvVEfX9Qtzk-194" value="" style="line;strokeWidth=1;fillColor=none;align=left;verticalAlign=middle;spacingTop=-1;spacingLeft=3;spacingRight=3;rotatable=0;labelPosition=right;points=[];portConstraint=eastwest;strokeColor=inherit;" parent="HYWczXIigkvVEfX9Qtzk-192" vertex="1">
          <mxGeometry y="26" width="146.37" height="8" as="geometry" />
        </mxCell>
        <mxCell id="HYWczXIigkvVEfX9Qtzk-196" value="1" style="endArrow=open;html=1;endSize=12;startArrow=diamondThin;startSize=14;startFill=1;edgeStyle=orthogonalEdgeStyle;align=left;verticalAlign=bottom;rounded=0;" parent="1" source="HYWczXIigkvVEfX9Qtzk-37" target="HYWczXIigkvVEfX9Qtzk-192" edge="1">
          <mxGeometry x="-1" y="3" relative="1" as="geometry">
            <mxPoint x="3695" y="377" as="sourcePoint" />
            <mxPoint x="3055" y="766" as="targetPoint" />
            <Array as="points">
              <mxPoint x="3580" y="257" />
            </Array>
          </mxGeometry>
        </mxCell>
        <mxCell id="HYWczXIigkvVEfX9Qtzk-200" value="GamePlaying" style="swimlane;fontStyle=1;align=center;verticalAlign=top;childLayout=stackLayout;horizontal=1;startSize=26;horizontalStack=0;resizeParent=1;resizeParentMax=0;resizeLast=0;collapsible=1;marginBottom=0;whiteSpace=wrap;html=1;" parent="1" vertex="1">
          <mxGeometry x="3730" y="600" width="120" height="34" as="geometry" />
        </mxCell>
        <mxCell id="HYWczXIigkvVEfX9Qtzk-202" value="" style="line;strokeWidth=1;fillColor=none;align=left;verticalAlign=middle;spacingTop=-1;spacingLeft=3;spacingRight=3;rotatable=0;labelPosition=right;points=[];portConstraint=eastwest;strokeColor=inherit;" parent="HYWczXIigkvVEfX9Qtzk-200" vertex="1">
          <mxGeometry y="26" width="120" height="8" as="geometry" />
        </mxCell>
        <mxCell id="HYWczXIigkvVEfX9Qtzk-204" value="1" style="endArrow=open;html=1;endSize=12;startArrow=diamondThin;startSize=14;startFill=1;edgeStyle=orthogonalEdgeStyle;align=left;verticalAlign=bottom;rounded=0;" parent="1" source="HYWczXIigkvVEfX9Qtzk-37" target="HYWczXIigkvVEfX9Qtzk-200" edge="1">
          <mxGeometry x="-1" y="3" relative="1" as="geometry">
            <mxPoint x="3798" y="267" as="sourcePoint" />
            <mxPoint x="3560" y="180" as="targetPoint" />
            <Array as="points">
              <mxPoint x="3920" y="617" />
            </Array>
          </mxGeometry>
        </mxCell>
        <mxCell id="HYWczXIigkvVEfX9Qtzk-205" value="GameMenu" style="swimlane;fontStyle=1;align=center;verticalAlign=top;childLayout=stackLayout;horizontal=1;startSize=26;horizontalStack=0;resizeParent=1;resizeParentMax=0;resizeLast=0;collapsible=1;marginBottom=0;whiteSpace=wrap;html=1;" parent="1" vertex="1">
          <mxGeometry x="3731.13" y="492" width="120.74" height="34" as="geometry" />
        </mxCell>
        <mxCell id="HYWczXIigkvVEfX9Qtzk-207" value="" style="line;strokeWidth=1;fillColor=none;align=left;verticalAlign=middle;spacingTop=-1;spacingLeft=3;spacingRight=3;rotatable=0;labelPosition=right;points=[];portConstraint=eastwest;strokeColor=inherit;" parent="HYWczXIigkvVEfX9Qtzk-205" vertex="1">
          <mxGeometry y="26" width="120.74" height="8" as="geometry" />
        </mxCell>
        <mxCell id="HYWczXIigkvVEfX9Qtzk-209" value="1" style="endArrow=open;html=1;endSize=12;startArrow=diamondThin;startSize=14;startFill=1;edgeStyle=orthogonalEdgeStyle;align=left;verticalAlign=bottom;rounded=0;" parent="1" source="HYWczXIigkvVEfX9Qtzk-37" target="HYWczXIigkvVEfX9Qtzk-205" edge="1">
          <mxGeometry x="-1" y="3" relative="1" as="geometry">
            <mxPoint x="3904" y="284" as="sourcePoint" />
            <mxPoint x="3874" y="660" as="targetPoint" />
            <Array as="points">
              <mxPoint x="3820" y="400" />
              <mxPoint x="3820" y="400" />
            </Array>
          </mxGeometry>
        </mxCell>
        <mxCell id="GbsSTuo7LH4kZio57JDL-1" value="" style="shape=folder;fontStyle=1;spacingTop=10;tabWidth=40;tabHeight=14;tabPosition=left;html=1;whiteSpace=wrap;" parent="1" vertex="1">
          <mxGeometry x="4040" y="600" width="187.5" height="265" as="geometry" />
        </mxCell>
        <mxCell id="GbsSTuo7LH4kZio57JDL-2" value="ImageNamePath" style="swimlane;fontStyle=1;align=center;verticalAlign=top;childLayout=stackLayout;horizontal=1;startSize=26;horizontalStack=0;resizeParent=1;resizeParentMax=0;resizeLast=0;collapsible=1;marginBottom=0;whiteSpace=wrap;html=1;" parent="1" vertex="1">
          <mxGeometry x="4060" y="812" width="147.5" height="34" as="geometry" />
        </mxCell>
        <mxCell id="GbsSTuo7LH4kZio57JDL-3" value="" style="line;strokeWidth=1;fillColor=none;align=left;verticalAlign=middle;spacingTop=-1;spacingLeft=3;spacingRight=3;rotatable=0;labelPosition=right;points=[];portConstraint=eastwest;strokeColor=inherit;" parent="GbsSTuo7LH4kZio57JDL-2" vertex="1">
          <mxGeometry y="26" width="147.5" height="8" as="geometry" />
        </mxCell>
        <mxCell id="GbsSTuo7LH4kZio57JDL-4" value="GameElementLoader" style="swimlane;fontStyle=1;align=center;verticalAlign=top;childLayout=stackLayout;horizontal=1;startSize=26;horizontalStack=0;resizeParent=1;resizeParentMax=0;resizeLast=0;collapsible=1;marginBottom=0;whiteSpace=wrap;html=1;" parent="1" vertex="1">
          <mxGeometry x="4070" y="656" width="137.5" height="34" as="geometry" />
        </mxCell>
        <mxCell id="GbsSTuo7LH4kZio57JDL-5" value="" style="line;strokeWidth=1;fillColor=none;align=left;verticalAlign=middle;spacingTop=-1;spacingLeft=3;spacingRight=3;rotatable=0;labelPosition=right;points=[];portConstraint=eastwest;strokeColor=inherit;" parent="GbsSTuo7LH4kZio57JDL-4" vertex="1">
          <mxGeometry y="26" width="137.5" height="8" as="geometry" />
        </mxCell>
        <mxCell id="GbsSTuo7LH4kZio57JDL-6" value="ImageLoader" style="swimlane;fontStyle=1;align=center;verticalAlign=top;childLayout=stackLayout;horizontal=1;startSize=26;horizontalStack=0;resizeParent=1;resizeParentMax=0;resizeLast=0;collapsible=1;marginBottom=0;whiteSpace=wrap;html=1;" parent="1" vertex="1">
          <mxGeometry x="4080" y="735" width="117.5" height="34" as="geometry" />
        </mxCell>
        <mxCell id="GbsSTuo7LH4kZio57JDL-7" value="" style="line;strokeWidth=1;fillColor=none;align=left;verticalAlign=middle;spacingTop=-1;spacingLeft=3;spacingRight=3;rotatable=0;labelPosition=right;points=[];portConstraint=eastwest;strokeColor=inherit;" parent="GbsSTuo7LH4kZio57JDL-6" vertex="1">
          <mxGeometry y="26" width="117.5" height="8" as="geometry" />
        </mxCell>
        <mxCell id="GbsSTuo7LH4kZio57JDL-8" value="" style="shape=folder;fontStyle=1;spacingTop=10;tabWidth=40;tabHeight=14;tabPosition=left;html=1;whiteSpace=wrap;" parent="1" vertex="1">
          <mxGeometry x="4287.5" y="646" width="177.5" height="168" as="geometry" />
        </mxCell>
        <mxCell id="GbsSTuo7LH4kZio57JDL-9" value="BaseLoader" style="swimlane;fontStyle=1;align=center;verticalAlign=top;childLayout=stackLayout;horizontal=1;startSize=26;horizontalStack=0;resizeParent=1;resizeParentMax=0;resizeLast=0;collapsible=1;marginBottom=0;whiteSpace=wrap;html=1;" parent="1" vertex="1">
          <mxGeometry x="4330.5" y="694" width="92.5" height="34" as="geometry" />
        </mxCell>
        <mxCell id="GbsSTuo7LH4kZio57JDL-10" value="" style="line;strokeWidth=1;fillColor=none;align=left;verticalAlign=middle;spacingTop=-1;spacingLeft=3;spacingRight=3;rotatable=0;labelPosition=right;points=[];portConstraint=eastwest;strokeColor=inherit;" parent="GbsSTuo7LH4kZio57JDL-9" vertex="1">
          <mxGeometry y="26" width="92.5" height="8" as="geometry" />
        </mxCell>
        <mxCell id="GbsSTuo7LH4kZio57JDL-11" value="FileNameFormatter" style="swimlane;fontStyle=1;align=center;verticalAlign=top;childLayout=stackLayout;horizontal=1;startSize=26;horizontalStack=0;resizeParent=1;resizeParentMax=0;resizeLast=0;collapsible=1;marginBottom=0;whiteSpace=wrap;html=1;" parent="1" vertex="1">
          <mxGeometry x="4302.5" y="754" width="148.5" height="34" as="geometry" />
        </mxCell>
        <mxCell id="GbsSTuo7LH4kZio57JDL-12" value="" style="line;strokeWidth=1;fillColor=none;align=left;verticalAlign=middle;spacingTop=-1;spacingLeft=3;spacingRight=3;rotatable=0;labelPosition=right;points=[];portConstraint=eastwest;strokeColor=inherit;" parent="GbsSTuo7LH4kZio57JDL-11" vertex="1">
          <mxGeometry y="26" width="148.5" height="8" as="geometry" />
        </mxCell>
        <mxCell id="GbsSTuo7LH4kZio57JDL-13" value="Use" style="endArrow=open;endSize=12;dashed=1;html=1;rounded=0;" parent="1" source="GbsSTuo7LH4kZio57JDL-4" target="GbsSTuo7LH4kZio57JDL-6" edge="1">
          <mxGeometry width="160" relative="1" as="geometry">
            <mxPoint x="4340" y="1030" as="sourcePoint" />
            <mxPoint x="4500" y="1030" as="targetPoint" />
          </mxGeometry>
        </mxCell>
        <mxCell id="GbsSTuo7LH4kZio57JDL-14" value="Use" style="endArrow=open;endSize=12;dashed=1;html=1;rounded=0;" parent="1" source="GbsSTuo7LH4kZio57JDL-6" target="GbsSTuo7LH4kZio57JDL-2" edge="1">
          <mxGeometry width="160" relative="1" as="geometry">
            <mxPoint x="4297" y="820" as="sourcePoint" />
            <mxPoint x="4296" y="864" as="targetPoint" />
          </mxGeometry>
        </mxCell>
        <mxCell id="GbsSTuo7LH4kZio57JDL-15" value="Use" style="endArrow=open;endSize=12;dashed=1;html=1;rounded=0;" parent="1" source="GbsSTuo7LH4kZio57JDL-1" target="GbsSTuo7LH4kZio57JDL-8" edge="1">
          <mxGeometry width="160" relative="1" as="geometry">
            <mxPoint x="4332.5" y="1030" as="sourcePoint" />
            <mxPoint x="3947.5" y="745.5303738317757" as="targetPoint" />
          </mxGeometry>
        </mxCell>
        <mxCell id="GbsSTuo7LH4kZio57JDL-16" value="&#xa;&lt;span style=&quot;color: rgb(0, 0, 0); font-family: Helvetica; font-size: 12px; font-style: normal; font-variant-ligatures: normal; font-variant-caps: normal; font-weight: 700; letter-spacing: normal; orphans: 2; text-align: center; text-indent: 0px; text-transform: none; widows: 2; word-spacing: 0px; -webkit-text-stroke-width: 0px; background-color: rgb(251, 251, 251); text-decoration-thickness: initial; text-decoration-style: initial; text-decoration-color: initial; float: none; display: inline !important;&quot;&gt;Game.Loader&lt;/span&gt;&#xa;&#xa;" style="text;align=center;fontStyle=1;verticalAlign=middle;spacingLeft=3;spacingRight=3;strokeColor=none;rotatable=0;points=[[0,0.5],[1,0.5]];portConstraint=eastwest;html=1;" parent="1" vertex="1">
          <mxGeometry x="4040" y="620" width="80" height="26" as="geometry" />
        </mxCell>
        <mxCell id="GbsSTuo7LH4kZio57JDL-17" value="&#xa;&lt;span style=&quot;color: rgb(0, 0, 0); font-family: Helvetica; font-size: 12px; font-style: normal; font-variant-ligatures: normal; font-variant-caps: normal; font-weight: 700; letter-spacing: normal; orphans: 2; text-align: center; text-indent: 0px; text-transform: none; widows: 2; word-spacing: 0px; -webkit-text-stroke-width: 0px; background-color: rgb(251, 251, 251); text-decoration-thickness: initial; text-decoration-style: initial; text-decoration-color: initial; float: none; display: inline !important;&quot;&gt;base.loader&lt;/span&gt;&#xa;&#xa;" style="text;align=center;fontStyle=1;verticalAlign=middle;spacingLeft=3;spacingRight=3;strokeColor=none;rotatable=0;points=[[0,0.5],[1,0.5]];portConstraint=eastwest;html=1;" parent="1" vertex="1">
          <mxGeometry x="4289" y="664" width="80" height="26" as="geometry" />
        </mxCell>
        <mxCell id="_l8jO9N6jadikkyM-96m-1" value="&#xa;&lt;span style=&quot;color: rgb(0, 0, 0); font-family: Helvetica; font-size: 12px; font-style: normal; font-variant-ligatures: normal; font-variant-caps: normal; font-weight: 700; letter-spacing: normal; orphans: 2; text-align: center; text-indent: 0px; text-transform: none; widows: 2; word-spacing: 0px; -webkit-text-stroke-width: 0px; background-color: rgb(251, 251, 251); text-decoration-thickness: initial; text-decoration-style: initial; text-decoration-color: initial; float: none; display: inline !important;&quot;&gt;Game.GUI&lt;/span&gt;&#xa;&#xa;" style="text;align=center;fontStyle=1;verticalAlign=middle;spacingLeft=3;spacingRight=3;strokeColor=none;rotatable=0;points=[[0,0.5],[1,0.5]];portConstraint=eastwest;html=1;" parent="1" vertex="1">
          <mxGeometry x="3440" y="453" width="80" height="26" as="geometry" />
        </mxCell>
        <mxCell id="_l8jO9N6jadikkyM-96m-2" value="&#xa;&lt;span style=&quot;color: rgb(0, 0, 0); font-family: Helvetica; font-size: 12px; font-style: normal; font-variant-ligatures: normal; font-variant-caps: normal; font-weight: 700; letter-spacing: normal; orphans: 2; text-align: center; text-indent: 0px; text-transform: none; widows: 2; word-spacing: 0px; -webkit-text-stroke-width: 0px; background-color: rgb(251, 251, 251); text-decoration-thickness: initial; text-decoration-style: initial; text-decoration-color: initial; float: none; display: inline !important;&quot;&gt;Game.audio&lt;/span&gt;&#xa;&#xa;" style="text;align=center;fontStyle=1;verticalAlign=middle;spacingLeft=3;spacingRight=3;strokeColor=none;rotatable=0;points=[[0,0.5],[1,0.5]];portConstraint=eastwest;html=1;" parent="1" vertex="1">
          <mxGeometry x="4040" y="403" width="80" height="26" as="geometry" />
        </mxCell>
        <mxCell id="bOHU7AulNIwu-qP7DYCr-1" value="&#xa;&lt;span style=&quot;color: rgb(0, 0, 0); font-family: Helvetica; font-size: 12px; font-style: normal; font-variant-ligatures: normal; font-variant-caps: normal; font-weight: 700; letter-spacing: normal; orphans: 2; text-align: center; text-indent: 0px; text-transform: none; widows: 2; word-spacing: 0px; -webkit-text-stroke-width: 0px; background-color: rgb(251, 251, 251); text-decoration-thickness: initial; text-decoration-style: initial; text-decoration-color: initial; float: none; display: inline !important;&quot;&gt;Game.GUI.ui&lt;/span&gt;&#xa;&#xa;" style="text;align=center;fontStyle=1;verticalAlign=middle;spacingLeft=3;spacingRight=3;strokeColor=none;rotatable=0;points=[[0,0.5],[1,0.5]];portConstraint=eastwest;html=1;" parent="1" vertex="1">
          <mxGeometry x="3479.51" y="100" width="80" height="26" as="geometry" />
        </mxCell>
        <mxCell id="bOHU7AulNIwu-qP7DYCr-3" value="Use" style="endArrow=open;endSize=12;dashed=1;html=1;rounded=0;exitX=0.492;exitY=1.005;exitDx=0;exitDy=0;exitPerimeter=0;entryX=0;entryY=0;entryDx=0;entryDy=139.5;entryPerimeter=0;" parent="1" source="HYWczXIigkvVEfX9Qtzk-121" target="GbsSTuo7LH4kZio57JDL-1" edge="1">
          <mxGeometry width="160" relative="1" as="geometry">
            <mxPoint x="4010" y="700" as="sourcePoint" />
            <mxPoint x="4170" y="700" as="targetPoint" />
            <Array as="points">
              <mxPoint x="3656" y="740" />
            </Array>
          </mxGeometry>
        </mxCell>
        <mxCell id="bOHU7AulNIwu-qP7DYCr-4" value="Use" style="endArrow=open;endSize=12;dashed=1;html=1;rounded=0;entryX=0.563;entryY=0.057;entryDx=0;entryDy=0;entryPerimeter=0;exitX=0.457;exitY=0.996;exitDx=0;exitDy=0;exitPerimeter=0;" parent="1" source="HYWczXIigkvVEfX9Qtzk-110" target="GbsSTuo7LH4kZio57JDL-1" edge="1">
          <mxGeometry width="160" relative="1" as="geometry">
            <mxPoint x="3818" y="690" as="sourcePoint" />
            <mxPoint x="4023" y="863" as="targetPoint" />
          </mxGeometry>
        </mxCell>
        <mxCell id="c9B4uWSaTs-ipYxxifhG-2" value="&#xa;&lt;span style=&quot;color: rgb(0, 0, 0); font-family: Helvetica; font-size: 12px; font-style: normal; font-variant-ligatures: normal; font-variant-caps: normal; font-weight: 700; letter-spacing: normal; orphans: 2; text-align: center; text-indent: 0px; text-transform: none; widows: 2; word-spacing: 0px; -webkit-text-stroke-width: 0px; background-color: rgb(251, 251, 251); text-decoration-thickness: initial; text-decoration-style: initial; text-decoration-color: initial; float: none; display: inline !important;&quot;&gt;logic.input&lt;/span&gt;&#xa;&#xa;" style="text;align=center;fontStyle=1;verticalAlign=middle;spacingLeft=3;spacingRight=3;strokeColor=none;rotatable=0;points=[[0,0.5],[1,0.5]];portConstraint=eastwest;html=1;" parent="1" vertex="1">
          <mxGeometry x="4360" y="293" width="80" height="26" as="geometry" />
        </mxCell>
        <mxCell id="c9B4uWSaTs-ipYxxifhG-3" value="&#xa;&lt;span style=&quot;color: rgb(0, 0, 0); font-family: Helvetica; font-size: 12px; font-style: normal; font-variant-ligatures: normal; font-variant-caps: normal; font-weight: 700; letter-spacing: normal; orphans: 2; text-align: center; text-indent: 0px; text-transform: none; widows: 2; word-spacing: 0px; -webkit-text-stroke-width: 0px; background-color: rgb(251, 251, 251); text-decoration-thickness: initial; text-decoration-style: initial; text-decoration-color: initial; float: none; display: inline !important;&quot;&gt;Game.state&lt;/span&gt;&#xa;&#xa;" style="text;align=center;fontStyle=1;verticalAlign=middle;spacingLeft=3;spacingRight=3;strokeColor=none;rotatable=0;points=[[0,0.5],[1,0.5]];portConstraint=eastwest;html=1;" parent="1" vertex="1">
          <mxGeometry x="4080" y="-140" width="80" height="26" as="geometry" />
        </mxCell>
        <mxCell id="vuv5d8H_PcrvSh_ABmi9-1" value="Use" style="endArrow=open;endSize=12;dashed=1;html=1;rounded=0;exitX=0.857;exitY=-0.013;exitDx=0;exitDy=0;exitPerimeter=0;entryX=0.118;entryY=1.012;entryDx=0;entryDy=0;entryPerimeter=0;" parent="1" source="HYWczXIigkvVEfX9Qtzk-37" target="HYWczXIigkvVEfX9Qtzk-83" edge="1">
          <mxGeometry x="-0.1814" width="160" relative="1" as="geometry">
            <mxPoint x="4635" y="360" as="sourcePoint" />
            <mxPoint x="4635" y="410" as="targetPoint" />
            <Array as="points">
              <mxPoint x="3970" y="150" />
              <mxPoint x="4114" y="150" />
            </Array>
            <mxPoint as="offset" />
          </mxGeometry>
        </mxCell>
      </root>
    </mxGraphModel>
  </diagram>
  <diagram id="LDnkuBx9IVsC10tx3ZQF" name="GamePlaying&amp;CharacterRelation">
    <mxGraphModel dx="350" dy="1176" grid="1" gridSize="10" guides="1" tooltips="1" connect="1" arrows="1" fold="1" page="1" pageScale="1" pageWidth="827" pageHeight="1169" math="0" shadow="0">
      <root>
        <mxCell id="0" />
        <mxCell id="1" parent="0" />
        <mxCell id="WK8QcCtqM6LGEKZtqocS-32" value="" style="shape=folder;fontStyle=1;spacingTop=10;tabWidth=40;tabHeight=14;tabPosition=left;html=1;whiteSpace=wrap;" parent="1" vertex="1">
          <mxGeometry x="2530" y="390" width="290" height="340" as="geometry" />
        </mxCell>
        <mxCell id="WK8QcCtqM6LGEKZtqocS-33" value="GameLevel" style="swimlane;fontStyle=1;align=center;verticalAlign=top;childLayout=stackLayout;horizontal=1;startSize=26;horizontalStack=0;resizeParent=1;resizeParentMax=0;resizeLast=0;collapsible=1;marginBottom=0;whiteSpace=wrap;html=1;" parent="1" vertex="1">
          <mxGeometry x="2577.5" y="524" width="195" height="60" as="geometry" />
        </mxCell>
        <mxCell id="WK8QcCtqM6LGEKZtqocS-34" value="-int[][] levelData" style="text;strokeColor=none;fillColor=none;align=left;verticalAlign=top;spacingLeft=4;spacingRight=4;overflow=hidden;rotatable=0;points=[[0,0.5],[1,0.5]];portConstraint=eastwest;whiteSpace=wrap;html=1;" parent="WK8QcCtqM6LGEKZtqocS-33" vertex="1">
          <mxGeometry y="26" width="195" height="26" as="geometry" />
        </mxCell>
        <mxCell id="WK8QcCtqM6LGEKZtqocS-35" value="" style="line;strokeWidth=1;fillColor=none;align=left;verticalAlign=middle;spacingTop=-1;spacingLeft=3;spacingRight=3;rotatable=0;labelPosition=right;points=[];portConstraint=eastwest;strokeColor=inherit;" parent="WK8QcCtqM6LGEKZtqocS-33" vertex="1">
          <mxGeometry y="52" width="195" height="8" as="geometry" />
        </mxCell>
        <mxCell id="WK8QcCtqM6LGEKZtqocS-37" value="GameEnemyManager" style="swimlane;fontStyle=1;align=center;verticalAlign=top;childLayout=stackLayout;horizontal=1;startSize=26;horizontalStack=0;resizeParent=1;resizeParentMax=0;resizeLast=0;collapsible=1;marginBottom=0;whiteSpace=wrap;html=1;" parent="1" vertex="1">
          <mxGeometry x="2585" y="619" width="180" height="34" as="geometry" />
        </mxCell>
        <mxCell id="WK8QcCtqM6LGEKZtqocS-39" value="" style="line;strokeWidth=1;fillColor=none;align=left;verticalAlign=middle;spacingTop=-1;spacingLeft=3;spacingRight=3;rotatable=0;labelPosition=right;points=[];portConstraint=eastwest;strokeColor=inherit;" parent="WK8QcCtqM6LGEKZtqocS-37" vertex="1">
          <mxGeometry y="26" width="180" height="8" as="geometry" />
        </mxCell>
        <mxCell id="WK8QcCtqM6LGEKZtqocS-41" value="GameLevelManager" style="swimlane;fontStyle=1;align=center;verticalAlign=top;childLayout=stackLayout;horizontal=1;startSize=26;horizontalStack=0;resizeParent=1;resizeParentMax=0;resizeLast=0;collapsible=1;marginBottom=0;whiteSpace=wrap;html=1;" parent="1" vertex="1">
          <mxGeometry x="2607" y="448" width="136" height="34" as="geometry" />
        </mxCell>
        <mxCell id="WK8QcCtqM6LGEKZtqocS-43" value="" style="line;strokeWidth=1;fillColor=none;align=left;verticalAlign=middle;spacingTop=-1;spacingLeft=3;spacingRight=3;rotatable=0;labelPosition=right;points=[];portConstraint=eastwest;strokeColor=inherit;" parent="WK8QcCtqM6LGEKZtqocS-41" vertex="1">
          <mxGeometry y="26" width="136" height="8" as="geometry" />
        </mxCell>
        <mxCell id="WK8QcCtqM6LGEKZtqocS-47" value="" style="shape=folder;fontStyle=1;spacingTop=10;tabWidth=40;tabHeight=14;tabPosition=left;html=1;whiteSpace=wrap;" parent="1" vertex="1">
          <mxGeometry x="2870" y="167" width="560" height="313" as="geometry" />
        </mxCell>
        <mxCell id="WK8QcCtqM6LGEKZtqocS-52" value="GamePlaying" style="swimlane;fontStyle=1;align=center;verticalAlign=top;childLayout=stackLayout;horizontal=1;startSize=26;horizontalStack=0;resizeParent=1;resizeParentMax=0;resizeLast=0;collapsible=1;marginBottom=0;whiteSpace=wrap;html=1;" parent="1" vertex="1">
          <mxGeometry x="2960" y="220" width="120" height="34" as="geometry" />
        </mxCell>
        <mxCell id="WK8QcCtqM6LGEKZtqocS-54" value="" style="line;strokeWidth=1;fillColor=none;align=left;verticalAlign=middle;spacingTop=-1;spacingLeft=3;spacingRight=3;rotatable=0;labelPosition=right;points=[];portConstraint=eastwest;strokeColor=inherit;" parent="WK8QcCtqM6LGEKZtqocS-52" vertex="1">
          <mxGeometry y="26" width="120" height="8" as="geometry" />
        </mxCell>
        <mxCell id="WK8QcCtqM6LGEKZtqocS-141" value="Game.GUI" style="text;align=center;fontStyle=1;verticalAlign=middle;spacingLeft=3;spacingRight=3;strokeColor=none;rotatable=0;points=[[0,0.5],[1,0.5]];portConstraint=eastwest;html=1;" parent="1" vertex="1">
          <mxGeometry x="2870" y="180" width="80" height="26" as="geometry" />
        </mxCell>
        <mxCell id="WK8QcCtqM6LGEKZtqocS-142" value="&#xa;&lt;span style=&quot;color: rgb(0, 0, 0); font-family: Helvetica; font-size: 12px; font-style: normal; font-variant-ligatures: normal; font-variant-caps: normal; font-weight: 700; letter-spacing: normal; orphans: 2; text-align: center; text-indent: 0px; text-transform: none; widows: 2; word-spacing: 0px; -webkit-text-stroke-width: 0px; background-color: rgb(251, 251, 251); text-decoration-thickness: initial; text-decoration-style: initial; text-decoration-color: initial; float: none; display: inline !important;&quot;&gt;Game.gameBackground&lt;/span&gt;&#xa;&#xa;" style="text;align=center;fontStyle=1;verticalAlign=middle;spacingLeft=3;spacingRight=3;strokeColor=none;rotatable=0;points=[[0,0.5],[1,0.5]];portConstraint=eastwest;html=1;" parent="1" vertex="1">
          <mxGeometry x="2570" y="412" width="80" height="26" as="geometry" />
        </mxCell>
        <mxCell id="gHBcer9O1CEipmEC8RS2-10" value="" style="shape=folder;fontStyle=1;spacingTop=10;tabWidth=40;tabHeight=14;tabPosition=left;html=1;whiteSpace=wrap;" parent="1" vertex="1">
          <mxGeometry x="3160" y="240" width="230" height="210.5" as="geometry" />
        </mxCell>
        <mxCell id="gHBcer9O1CEipmEC8RS2-13" value="GameLevelCompletedOverLayer" style="swimlane;fontStyle=1;align=center;verticalAlign=top;childLayout=stackLayout;horizontal=1;startSize=26;horizontalStack=0;resizeParent=1;resizeParentMax=0;resizeLast=0;collapsible=1;marginBottom=0;whiteSpace=wrap;html=1;" parent="1" vertex="1">
          <mxGeometry x="3180" y="290" width="190" height="34" as="geometry" />
        </mxCell>
        <mxCell id="gHBcer9O1CEipmEC8RS2-14" value="" style="line;strokeWidth=1;fillColor=none;align=left;verticalAlign=middle;spacingTop=-1;spacingLeft=3;spacingRight=3;rotatable=0;labelPosition=right;points=[];portConstraint=eastwest;strokeColor=inherit;" parent="gHBcer9O1CEipmEC8RS2-13" vertex="1">
          <mxGeometry y="26" width="190" height="8" as="geometry" />
        </mxCell>
        <mxCell id="gHBcer9O1CEipmEC8RS2-15" value="GameOverDisplayLayer" style="swimlane;fontStyle=1;align=center;verticalAlign=top;childLayout=stackLayout;horizontal=1;startSize=26;horizontalStack=0;resizeParent=1;resizeParentMax=0;resizeLast=0;collapsible=1;marginBottom=0;whiteSpace=wrap;html=1;" parent="1" vertex="1">
          <mxGeometry x="3200" y="340" width="160" height="34" as="geometry" />
        </mxCell>
        <mxCell id="gHBcer9O1CEipmEC8RS2-16" value="" style="line;strokeWidth=1;fillColor=none;align=left;verticalAlign=middle;spacingTop=-1;spacingLeft=3;spacingRight=3;rotatable=0;labelPosition=right;points=[];portConstraint=eastwest;strokeColor=inherit;" parent="gHBcer9O1CEipmEC8RS2-15" vertex="1">
          <mxGeometry y="26" width="160" height="8" as="geometry" />
        </mxCell>
        <mxCell id="gHBcer9O1CEipmEC8RS2-17" value="GamePauseDisplayLayer" style="swimlane;fontStyle=1;align=center;verticalAlign=top;childLayout=stackLayout;horizontal=1;startSize=26;horizontalStack=0;resizeParent=1;resizeParentMax=0;resizeLast=0;collapsible=1;marginBottom=0;whiteSpace=wrap;html=1;" parent="1" vertex="1">
          <mxGeometry x="3200" y="394.5" width="160" height="34" as="geometry" />
        </mxCell>
        <mxCell id="gHBcer9O1CEipmEC8RS2-18" value="" style="line;strokeWidth=1;fillColor=none;align=left;verticalAlign=middle;spacingTop=-1;spacingLeft=3;spacingRight=3;rotatable=0;labelPosition=right;points=[];portConstraint=eastwest;strokeColor=inherit;" parent="gHBcer9O1CEipmEC8RS2-17" vertex="1">
          <mxGeometry y="26" width="160" height="8" as="geometry" />
        </mxCell>
        <mxCell id="gHBcer9O1CEipmEC8RS2-19" value="1" style="endArrow=open;html=1;endSize=12;startArrow=diamondThin;startSize=14;startFill=1;edgeStyle=orthogonalEdgeStyle;align=left;verticalAlign=bottom;rounded=0;" parent="1" source="WK8QcCtqM6LGEKZtqocS-41" target="WK8QcCtqM6LGEKZtqocS-33" edge="1">
          <mxGeometry x="-1" y="3" relative="1" as="geometry">
            <mxPoint x="2790" y="358" as="sourcePoint" />
            <mxPoint x="2950" y="358" as="targetPoint" />
          </mxGeometry>
        </mxCell>
        <mxCell id="gHBcer9O1CEipmEC8RS2-20" value="1" style="endArrow=open;html=1;endSize=12;startArrow=diamondThin;startSize=14;startFill=1;edgeStyle=orthogonalEdgeStyle;align=left;verticalAlign=bottom;rounded=0;" parent="1" source="WK8QcCtqM6LGEKZtqocS-52" target="WK8QcCtqM6LGEKZtqocS-41" edge="1">
          <mxGeometry x="-1" y="3" relative="1" as="geometry">
            <mxPoint x="2685" y="454" as="sourcePoint" />
            <mxPoint x="2685" y="496" as="targetPoint" />
            <Array as="points">
              <mxPoint x="2980" y="460" />
            </Array>
          </mxGeometry>
        </mxCell>
        <mxCell id="gHBcer9O1CEipmEC8RS2-21" value="1" style="endArrow=open;html=1;endSize=12;startArrow=diamondThin;startSize=14;startFill=1;edgeStyle=orthogonalEdgeStyle;align=left;verticalAlign=bottom;rounded=0;" parent="1" source="WK8QcCtqM6LGEKZtqocS-52" target="WK8QcCtqM6LGEKZtqocS-37" edge="1">
          <mxGeometry x="-1" y="3" relative="1" as="geometry">
            <mxPoint x="3030" y="264" as="sourcePoint" />
            <mxPoint x="2753" y="430" as="targetPoint" />
            <Array as="points">
              <mxPoint x="2480" y="240" />
              <mxPoint x="2480" y="636" />
            </Array>
          </mxGeometry>
        </mxCell>
        <mxCell id="gHBcer9O1CEipmEC8RS2-22" value="1" style="endArrow=open;html=1;endSize=12;startArrow=diamondThin;startSize=14;startFill=1;edgeStyle=orthogonalEdgeStyle;align=left;verticalAlign=bottom;rounded=0;" parent="1" source="WK8QcCtqM6LGEKZtqocS-52" target="gHBcer9O1CEipmEC8RS2-15" edge="1">
          <mxGeometry x="-1" y="3" relative="1" as="geometry">
            <mxPoint x="2970" y="250" as="sourcePoint" />
            <mxPoint x="2685" y="350" as="targetPoint" />
            <Array as="points">
              <mxPoint x="3000" y="360" />
            </Array>
          </mxGeometry>
        </mxCell>
        <mxCell id="gHBcer9O1CEipmEC8RS2-23" value="1" style="endArrow=open;html=1;endSize=12;startArrow=diamondThin;startSize=14;startFill=1;edgeStyle=orthogonalEdgeStyle;align=left;verticalAlign=bottom;rounded=0;" parent="1" source="WK8QcCtqM6LGEKZtqocS-52" target="gHBcer9O1CEipmEC8RS2-17" edge="1">
          <mxGeometry x="-1" y="3" relative="1" as="geometry">
            <mxPoint x="3030" y="264" as="sourcePoint" />
            <mxPoint x="3210" y="370" as="targetPoint" />
            <Array as="points">
              <mxPoint x="3040" y="410" />
            </Array>
          </mxGeometry>
        </mxCell>
        <mxCell id="gHBcer9O1CEipmEC8RS2-24" value="1" style="endArrow=open;html=1;endSize=12;startArrow=diamondThin;startSize=14;startFill=1;edgeStyle=orthogonalEdgeStyle;align=left;verticalAlign=bottom;rounded=0;" parent="1" source="WK8QcCtqM6LGEKZtqocS-52" target="gHBcer9O1CEipmEC8RS2-13" edge="1">
          <mxGeometry x="-1" y="3" relative="1" as="geometry">
            <mxPoint x="3030" y="264" as="sourcePoint" />
            <mxPoint x="3210" y="370" as="targetPoint" />
            <Array as="points">
              <mxPoint x="3060" y="300" />
            </Array>
          </mxGeometry>
        </mxCell>
        <mxCell id="gHBcer9O1CEipmEC8RS2-25" value="&#xa;&lt;span style=&quot;color: rgb(0, 0, 0); font-family: Helvetica; font-size: 12px; font-style: normal; font-variant-ligatures: normal; font-variant-caps: normal; font-weight: 700; letter-spacing: normal; orphans: 2; text-align: center; text-indent: 0px; text-transform: none; widows: 2; word-spacing: 0px; -webkit-text-stroke-width: 0px; background-color: rgb(251, 251, 251); text-decoration-thickness: initial; text-decoration-style: initial; text-decoration-color: initial; float: none; display: inline !important;&quot;&gt;Game.GUI.UI&lt;/span&gt;&#xa;&#xa;" style="text;align=center;fontStyle=1;verticalAlign=middle;spacingLeft=3;spacingRight=3;strokeColor=none;rotatable=0;points=[[0,0.5],[1,0.5]];portConstraint=eastwest;html=1;" parent="1" vertex="1">
          <mxGeometry x="3160" y="270" width="80" height="10" as="geometry" />
        </mxCell>
        <mxCell id="TkMuKhfuhFKeFU8Ec0d0-1" value="" style="shape=folder;fontStyle=1;spacingTop=10;tabWidth=40;tabHeight=14;tabPosition=left;html=1;whiteSpace=wrap;" parent="1" vertex="1">
          <mxGeometry x="2847" y="870" width="270" height="312" as="geometry" />
        </mxCell>
        <mxCell id="TkMuKhfuhFKeFU8Ec0d0-2" value="BasicGameCharacterABC" style="swimlane;fontStyle=1;align=center;verticalAlign=top;childLayout=stackLayout;horizontal=1;startSize=26;horizontalStack=0;resizeParent=1;resizeParentMax=0;resizeLast=0;collapsible=1;marginBottom=0;whiteSpace=wrap;html=1;" parent="1" vertex="1">
          <mxGeometry x="2887" y="916" width="190" height="34" as="geometry" />
        </mxCell>
        <mxCell id="TkMuKhfuhFKeFU8Ec0d0-4" value="" style="line;strokeWidth=1;fillColor=none;align=left;verticalAlign=middle;spacingTop=-1;spacingLeft=3;spacingRight=3;rotatable=0;labelPosition=right;points=[];portConstraint=eastwest;strokeColor=inherit;" parent="TkMuKhfuhFKeFU8Ec0d0-2" vertex="1">
          <mxGeometry y="26" width="190" height="8" as="geometry" />
        </mxCell>
        <mxCell id="TkMuKhfuhFKeFU8Ec0d0-7" value="GameCharacterABC" style="swimlane;fontStyle=1;align=center;verticalAlign=top;childLayout=stackLayout;horizontal=1;startSize=26;horizontalStack=0;resizeParent=1;resizeParentMax=0;resizeLast=0;collapsible=1;marginBottom=0;whiteSpace=wrap;html=1;" parent="1" vertex="1">
          <mxGeometry x="2893.5" y="990" width="177" height="34" as="geometry" />
        </mxCell>
        <mxCell id="TkMuKhfuhFKeFU8Ec0d0-9" value="" style="line;strokeWidth=1;fillColor=none;align=left;verticalAlign=middle;spacingTop=-1;spacingLeft=3;spacingRight=3;rotatable=0;labelPosition=right;points=[];portConstraint=eastwest;strokeColor=inherit;" parent="TkMuKhfuhFKeFU8Ec0d0-7" vertex="1">
          <mxGeometry y="26" width="177" height="8" as="geometry" />
        </mxCell>
        <mxCell id="TkMuKhfuhFKeFU8Ec0d0-12" value="GameEnemyABC" style="swimlane;fontStyle=1;align=center;verticalAlign=top;childLayout=stackLayout;horizontal=1;startSize=26;horizontalStack=0;resizeParent=1;resizeParentMax=0;resizeLast=0;collapsible=1;marginBottom=0;whiteSpace=wrap;html=1;" parent="1" vertex="1">
          <mxGeometry x="2898.5" y="1112" width="167" height="34" as="geometry" />
        </mxCell>
        <mxCell id="TkMuKhfuhFKeFU8Ec0d0-14" value="" style="line;strokeWidth=1;fillColor=none;align=left;verticalAlign=middle;spacingTop=-1;spacingLeft=3;spacingRight=3;rotatable=0;labelPosition=right;points=[];portConstraint=eastwest;strokeColor=inherit;" parent="TkMuKhfuhFKeFU8Ec0d0-12" vertex="1">
          <mxGeometry y="26" width="167" height="8" as="geometry" />
        </mxCell>
        <mxCell id="TkMuKhfuhFKeFU8Ec0d0-16" value="" style="shape=folder;fontStyle=1;spacingTop=10;tabWidth=40;tabHeight=14;tabPosition=left;html=1;whiteSpace=wrap;" parent="1" vertex="1">
          <mxGeometry x="2540" y="1080" width="270" height="150" as="geometry" />
        </mxCell>
        <mxCell id="TkMuKhfuhFKeFU8Ec0d0-17" value="&amp;lt;enum&amp;gt;GameEnemyType" style="swimlane;fontStyle=1;align=center;verticalAlign=top;childLayout=stackLayout;horizontal=1;startSize=26;horizontalStack=0;resizeParent=1;resizeParentMax=0;resizeLast=0;collapsible=1;marginBottom=0;whiteSpace=wrap;html=1;" parent="1" vertex="1">
          <mxGeometry x="2590" y="1170" width="190" height="34" as="geometry" />
        </mxCell>
        <mxCell id="TkMuKhfuhFKeFU8Ec0d0-19" value="" style="line;strokeWidth=1;fillColor=none;align=left;verticalAlign=middle;spacingTop=-1;spacingLeft=3;spacingRight=3;rotatable=0;labelPosition=right;points=[];portConstraint=eastwest;strokeColor=inherit;" parent="TkMuKhfuhFKeFU8Ec0d0-17" vertex="1">
          <mxGeometry y="26" width="190" height="8" as="geometry" />
        </mxCell>
        <mxCell id="TkMuKhfuhFKeFU8Ec0d0-21" value="GameEnemy" style="swimlane;fontStyle=1;align=center;verticalAlign=top;childLayout=stackLayout;horizontal=1;startSize=26;horizontalStack=0;resizeParent=1;resizeParentMax=0;resizeLast=0;collapsible=1;marginBottom=0;whiteSpace=wrap;html=1;" parent="1" vertex="1">
          <mxGeometry x="2610" y="1110" width="130" height="34" as="geometry" />
        </mxCell>
        <mxCell id="TkMuKhfuhFKeFU8Ec0d0-23" value="" style="line;strokeWidth=1;fillColor=none;align=left;verticalAlign=middle;spacingTop=-1;spacingLeft=3;spacingRight=3;rotatable=0;labelPosition=right;points=[];portConstraint=eastwest;strokeColor=inherit;" parent="TkMuKhfuhFKeFU8Ec0d0-21" vertex="1">
          <mxGeometry y="26" width="130" height="8" as="geometry" />
        </mxCell>
        <mxCell id="TkMuKhfuhFKeFU8Ec0d0-26" value="" style="shape=folder;fontStyle=1;spacingTop=10;tabWidth=40;tabHeight=14;tabPosition=left;html=1;whiteSpace=wrap;" parent="1" vertex="1">
          <mxGeometry x="2870" y="496" width="320" height="254" as="geometry" />
        </mxCell>
        <mxCell id="TkMuKhfuhFKeFU8Ec0d0-27" value="" style="shape=folder;fontStyle=1;spacingTop=10;tabWidth=40;tabHeight=14;tabPosition=left;html=1;whiteSpace=wrap;" parent="1" vertex="1">
          <mxGeometry x="3210" y="519" width="230" height="197" as="geometry" />
        </mxCell>
        <mxCell id="TkMuKhfuhFKeFU8Ec0d0-28" value="GamePoint" style="swimlane;fontStyle=1;align=center;verticalAlign=top;childLayout=stackLayout;horizontal=1;startSize=26;horizontalStack=0;resizeParent=1;resizeParentMax=0;resizeLast=0;collapsible=1;marginBottom=0;whiteSpace=wrap;html=1;" parent="1" vertex="1">
          <mxGeometry x="2925.25" y="687.5" width="113.5" height="34" as="geometry" />
        </mxCell>
        <mxCell id="TkMuKhfuhFKeFU8Ec0d0-29" value="" style="line;strokeWidth=1;fillColor=none;align=left;verticalAlign=middle;spacingTop=-1;spacingLeft=3;spacingRight=3;rotatable=0;labelPosition=right;points=[];portConstraint=eastwest;strokeColor=inherit;" parent="TkMuKhfuhFKeFU8Ec0d0-28" vertex="1">
          <mxGeometry y="26" width="113.5" height="8" as="geometry" />
        </mxCell>
        <mxCell id="TkMuKhfuhFKeFU8Ec0d0-31" value="GameUnitPair" style="swimlane;fontStyle=1;align=center;verticalAlign=top;childLayout=stackLayout;horizontal=1;startSize=26;horizontalStack=0;resizeParent=1;resizeParentMax=0;resizeLast=0;collapsible=1;marginBottom=0;whiteSpace=wrap;html=1;" parent="1" vertex="1">
          <mxGeometry x="2904" y="571.5" width="156" height="42" as="geometry" />
        </mxCell>
        <mxCell id="TkMuKhfuhFKeFU8Ec0d0-33" value="" style="line;strokeWidth=1;fillColor=none;align=left;verticalAlign=middle;spacingTop=-1;spacingLeft=3;spacingRight=3;rotatable=0;labelPosition=right;points=[];portConstraint=eastwest;strokeColor=inherit;" parent="TkMuKhfuhFKeFU8Ec0d0-31" vertex="1">
          <mxGeometry y="26" width="156" height="16" as="geometry" />
        </mxCell>
        <mxCell id="TkMuKhfuhFKeFU8Ec0d0-35" value="implements" style="endArrow=block;endSize=16;endFill=0;html=1;rounded=0;" parent="1" source="TkMuKhfuhFKeFU8Ec0d0-28" target="TkMuKhfuhFKeFU8Ec0d0-31" edge="1">
          <mxGeometry width="160" relative="1" as="geometry">
            <mxPoint x="3504.5" y="399" as="sourcePoint" />
            <mxPoint x="3524.5" y="1177.042857142857" as="targetPoint" />
          </mxGeometry>
        </mxCell>
        <mxCell id="TkMuKhfuhFKeFU8Ec0d0-40" value="Use" style="endArrow=open;endSize=12;dashed=1;html=1;rounded=0;" parent="1" source="xK-nOmwzQzCZtX6LUSqM-7" target="xK-nOmwzQzCZtX6LUSqM-4" edge="1">
          <mxGeometry width="160" relative="1" as="geometry">
            <mxPoint x="3134.643533123028" y="730" as="sourcePoint" />
            <mxPoint x="3225" y="575.1379310344828" as="targetPoint" />
            <Array as="points">
              <mxPoint x="3104" y="584" />
            </Array>
          </mxGeometry>
        </mxCell>
        <mxCell id="TkMuKhfuhFKeFU8Ec0d0-49" value="" style="shape=folder;fontStyle=1;spacingTop=10;tabWidth=40;tabHeight=14;tabPosition=left;html=1;whiteSpace=wrap;" parent="1" vertex="1">
          <mxGeometry x="2650" y="740" width="195" height="112.5" as="geometry" />
        </mxCell>
        <mxCell id="TkMuKhfuhFKeFU8Ec0d0-50" value="GameHelpMethods" style="swimlane;fontStyle=1;align=center;verticalAlign=top;childLayout=stackLayout;horizontal=1;startSize=26;horizontalStack=0;resizeParent=1;resizeParentMax=0;resizeLast=0;collapsible=1;marginBottom=0;whiteSpace=wrap;html=1;" parent="1" vertex="1">
          <mxGeometry x="2685" y="788.5" width="135" height="34" as="geometry" />
        </mxCell>
        <mxCell id="TkMuKhfuhFKeFU8Ec0d0-51" value="" style="line;strokeWidth=1;fillColor=none;align=left;verticalAlign=middle;spacingTop=-1;spacingLeft=3;spacingRight=3;rotatable=0;labelPosition=right;points=[];portConstraint=eastwest;strokeColor=inherit;" parent="TkMuKhfuhFKeFU8Ec0d0-50" vertex="1">
          <mxGeometry y="26" width="135" height="8" as="geometry" />
        </mxCell>
        <mxCell id="TkMuKhfuhFKeFU8Ec0d0-54" value="Extends" style="endArrow=block;endSize=16;endFill=0;html=1;rounded=0;" parent="1" source="TkMuKhfuhFKeFU8Ec0d0-7" target="TkMuKhfuhFKeFU8Ec0d0-2" edge="1">
          <mxGeometry width="160" relative="1" as="geometry">
            <mxPoint x="3565" y="1480" as="sourcePoint" />
            <mxPoint x="3725" y="1480" as="targetPoint" />
          </mxGeometry>
        </mxCell>
        <mxCell id="TkMuKhfuhFKeFU8Ec0d0-55" value="Extends" style="endArrow=block;endSize=16;endFill=0;html=1;rounded=0;" parent="1" source="TkMuKhfuhFKeFU8Ec0d0-12" target="TkMuKhfuhFKeFU8Ec0d0-7" edge="1">
          <mxGeometry width="160" relative="1" as="geometry">
            <mxPoint x="2887" y="1540" as="sourcePoint" />
            <mxPoint x="2887" y="954" as="targetPoint" />
          </mxGeometry>
        </mxCell>
        <mxCell id="TkMuKhfuhFKeFU8Ec0d0-58" value="Extends" style="endArrow=block;endSize=16;endFill=0;html=1;rounded=0;" parent="1" source="TkMuKhfuhFKeFU8Ec0d0-21" target="TkMuKhfuhFKeFU8Ec0d0-12" edge="1">
          <mxGeometry width="160" relative="1" as="geometry">
            <mxPoint x="2987" y="1780" as="sourcePoint" />
            <mxPoint x="2987" y="1434" as="targetPoint" />
          </mxGeometry>
        </mxCell>
        <mxCell id="MAZJIAtfugC3xBqzafZV-2" value="&#xa;&lt;span style=&quot;color: rgb(0, 0, 0); font-family: Helvetica; font-size: 12px; font-style: normal; font-variant-ligatures: normal; font-variant-caps: normal; font-weight: 700; letter-spacing: normal; orphans: 2; text-align: center; text-indent: 0px; text-transform: none; widows: 2; word-spacing: 0px; -webkit-text-stroke-width: 0px; background-color: rgb(251, 251, 251); text-decoration-thickness: initial; text-decoration-style: initial; text-decoration-color: initial; float: none; display: inline !important;&quot;&gt;Game.role.ABC&lt;/span&gt;&#xa;&#xa;" style="text;align=center;fontStyle=1;verticalAlign=middle;spacingLeft=3;spacingRight=3;strokeColor=none;rotatable=0;points=[[0,0.5],[1,0.5]];portConstraint=eastwest;html=1;" parent="1" vertex="1">
          <mxGeometry x="2859" y="890" width="80" height="26" as="geometry" />
        </mxCell>
        <mxCell id="MAZJIAtfugC3xBqzafZV-3" value="&#xa;&lt;span style=&quot;color: rgb(0, 0, 0); font-family: Helvetica; font-size: 12px; font-style: normal; font-variant-ligatures: normal; font-variant-caps: normal; font-weight: 700; letter-spacing: normal; orphans: 2; text-align: center; text-indent: 0px; text-transform: none; widows: 2; word-spacing: 0px; -webkit-text-stroke-width: 0px; background-color: rgb(251, 251, 251); text-decoration-thickness: initial; text-decoration-style: initial; text-decoration-color: initial; float: none; display: inline !important;&quot;&gt;Game.role&lt;/span&gt;&#xa;&#xa;" style="text;align=center;fontStyle=1;verticalAlign=middle;spacingLeft=3;spacingRight=3;strokeColor=none;rotatable=0;points=[[0,0.5],[1,0.5]];portConstraint=eastwest;html=1;" parent="1" vertex="1">
          <mxGeometry x="2540" y="1100" width="80" height="26" as="geometry" />
        </mxCell>
        <mxCell id="MAZJIAtfugC3xBqzafZV-4" value="&#xa;&lt;span style=&quot;color: rgb(0, 0, 0); font-family: Helvetica; font-size: 12px; font-style: normal; font-variant-ligatures: normal; font-variant-caps: normal; font-weight: 700; letter-spacing: normal; orphans: 2; text-align: center; text-indent: 0px; text-transform: none; widows: 2; word-spacing: 0px; -webkit-text-stroke-width: 0px; background-color: rgb(251, 251, 251); text-decoration-thickness: initial; text-decoration-style: initial; text-decoration-color: initial; float: none; display: inline !important;&quot;&gt;Game.gameBase&lt;/span&gt;&#xa;&#xa;" style="text;align=center;fontStyle=1;verticalAlign=middle;spacingLeft=3;spacingRight=3;strokeColor=none;rotatable=0;points=[[0,0.5],[1,0.5]];portConstraint=eastwest;html=1;" parent="1" vertex="1">
          <mxGeometry x="2880" y="519" width="80" height="26" as="geometry" />
        </mxCell>
        <mxCell id="MAZJIAtfugC3xBqzafZV-6" value="&#xa;&lt;span style=&quot;color: rgb(0, 0, 0); font-family: Helvetica; font-size: 12px; font-style: normal; font-variant-ligatures: normal; font-variant-caps: normal; font-weight: 700; letter-spacing: normal; orphans: 2; text-align: center; text-indent: 0px; text-transform: none; widows: 2; word-spacing: 0px; -webkit-text-stroke-width: 0px; background-color: rgb(251, 251, 251); text-decoration-thickness: initial; text-decoration-style: initial; text-decoration-color: initial; float: none; display: inline !important;&quot;&gt;logic.Controller&lt;/span&gt;&#xa;&#xa;" style="text;align=center;fontStyle=1;verticalAlign=middle;spacingLeft=3;spacingRight=3;strokeColor=none;rotatable=0;points=[[0,0.5],[1,0.5]];portConstraint=eastwest;html=1;" parent="1" vertex="1">
          <mxGeometry x="2665" y="762.5" width="80" height="26" as="geometry" />
        </mxCell>
        <mxCell id="MAZJIAtfugC3xBqzafZV-7" value="1" style="endArrow=open;html=1;endSize=12;startArrow=diamondThin;startSize=14;startFill=1;edgeStyle=orthogonalEdgeStyle;align=left;verticalAlign=bottom;rounded=0;" parent="1" source="WK8QcCtqM6LGEKZtqocS-37" target="TkMuKhfuhFKeFU8Ec0d0-21" edge="1">
          <mxGeometry x="-1" y="3" relative="1" as="geometry">
            <mxPoint x="3050" y="610" as="sourcePoint" />
            <mxPoint x="3210" y="610" as="targetPoint" />
            <Array as="points">
              <mxPoint x="2630" y="760" />
              <mxPoint x="2630" y="760" />
            </Array>
          </mxGeometry>
        </mxCell>
        <mxCell id="MAZJIAtfugC3xBqzafZV-9" value="" style="shape=folder;fontStyle=1;spacingTop=10;tabWidth=40;tabHeight=14;tabPosition=left;html=1;whiteSpace=wrap;" parent="1" vertex="1">
          <mxGeometry x="3175" y="950" width="220" height="250" as="geometry" />
        </mxCell>
        <mxCell id="MAZJIAtfugC3xBqzafZV-10" value="Player" style="swimlane;fontStyle=1;align=center;verticalAlign=top;childLayout=stackLayout;horizontal=1;startSize=26;horizontalStack=0;resizeParent=1;resizeParentMax=0;resizeLast=0;collapsible=1;marginBottom=0;whiteSpace=wrap;html=1;" parent="1" vertex="1">
          <mxGeometry x="3215" y="992" width="130" height="34" as="geometry" />
        </mxCell>
        <mxCell id="MAZJIAtfugC3xBqzafZV-12" value="" style="line;strokeWidth=1;fillColor=none;align=left;verticalAlign=middle;spacingTop=-1;spacingLeft=3;spacingRight=3;rotatable=0;labelPosition=right;points=[];portConstraint=eastwest;strokeColor=inherit;" parent="MAZJIAtfugC3xBqzafZV-10" vertex="1">
          <mxGeometry y="26" width="130" height="8" as="geometry" />
        </mxCell>
        <mxCell id="MAZJIAtfugC3xBqzafZV-14" value="DataPass" style="swimlane;fontStyle=1;align=center;verticalAlign=top;childLayout=stackLayout;horizontal=1;startSize=26;horizontalStack=0;resizeParent=1;resizeParentMax=0;resizeLast=0;collapsible=1;marginBottom=0;whiteSpace=wrap;html=1;" parent="1" vertex="1">
          <mxGeometry x="3220" y="1040" width="120" height="34" as="geometry" />
        </mxCell>
        <mxCell id="MAZJIAtfugC3xBqzafZV-15" value="" style="line;strokeWidth=1;fillColor=none;align=left;verticalAlign=middle;spacingTop=-1;spacingLeft=3;spacingRight=3;rotatable=0;labelPosition=right;points=[];portConstraint=eastwest;strokeColor=inherit;" parent="MAZJIAtfugC3xBqzafZV-14" vertex="1">
          <mxGeometry y="26" width="120" height="8" as="geometry" />
        </mxCell>
        <mxCell id="MAZJIAtfugC3xBqzafZV-17" value="GameElementFactory" style="swimlane;fontStyle=1;align=center;verticalAlign=top;childLayout=stackLayout;horizontal=1;startSize=26;horizontalStack=0;resizeParent=1;resizeParentMax=0;resizeLast=0;collapsible=1;marginBottom=0;whiteSpace=wrap;html=1;" parent="1" vertex="1">
          <mxGeometry x="3195" y="1090" width="190" height="34" as="geometry" />
        </mxCell>
        <mxCell id="MAZJIAtfugC3xBqzafZV-19" value="" style="line;strokeWidth=1;fillColor=none;align=left;verticalAlign=middle;spacingTop=-1;spacingLeft=3;spacingRight=3;rotatable=0;labelPosition=right;points=[];portConstraint=eastwest;strokeColor=inherit;" parent="MAZJIAtfugC3xBqzafZV-17" vertex="1">
          <mxGeometry y="26" width="190" height="8" as="geometry" />
        </mxCell>
        <mxCell id="MAZJIAtfugC3xBqzafZV-21" value="GameSourceFilePath" style="swimlane;fontStyle=1;align=center;verticalAlign=top;childLayout=stackLayout;horizontal=1;startSize=26;horizontalStack=0;resizeParent=1;resizeParentMax=0;resizeLast=0;collapsible=1;marginBottom=0;whiteSpace=wrap;html=1;" parent="1" vertex="1">
          <mxGeometry x="3195" y="1140" width="180" height="34" as="geometry" />
        </mxCell>
        <mxCell id="MAZJIAtfugC3xBqzafZV-23" value="" style="line;strokeWidth=1;fillColor=none;align=left;verticalAlign=middle;spacingTop=-1;spacingLeft=3;spacingRight=3;rotatable=0;labelPosition=right;points=[];portConstraint=eastwest;strokeColor=inherit;" parent="MAZJIAtfugC3xBqzafZV-21" vertex="1">
          <mxGeometry y="26" width="180" height="8" as="geometry" />
        </mxCell>
        <mxCell id="MAZJIAtfugC3xBqzafZV-26" value="1" style="endArrow=open;html=1;endSize=12;startArrow=diamondThin;startSize=14;startFill=1;edgeStyle=orthogonalEdgeStyle;align=left;verticalAlign=bottom;rounded=0;" parent="1" source="TkMuKhfuhFKeFU8Ec0d0-2" target="TkMuKhfuhFKeFU8Ec0d0-28" edge="1">
          <mxGeometry x="-1" y="3" relative="1" as="geometry">
            <mxPoint x="2685" y="792" as="sourcePoint" />
            <mxPoint x="2685" y="963" as="targetPoint" />
            <Array as="points">
              <mxPoint x="2982" y="830" />
              <mxPoint x="2982" y="830" />
            </Array>
          </mxGeometry>
        </mxCell>
        <mxCell id="MAZJIAtfugC3xBqzafZV-27" value="&#xa;&lt;span style=&quot;color: rgb(0, 0, 0); font-family: Helvetica; font-size: 12px; font-style: normal; font-variant-ligatures: normal; font-variant-caps: normal; font-weight: 700; letter-spacing: normal; orphans: 2; text-align: center; text-indent: 0px; text-transform: none; widows: 2; word-spacing: 0px; -webkit-text-stroke-width: 0px; background-color: rgb(251, 251, 251); text-decoration-thickness: initial; text-decoration-style: initial; text-decoration-color: initial; float: none; display: inline !important;&quot;&gt;Game&lt;/span&gt;&#xa;&#xa;" style="text;align=center;fontStyle=1;verticalAlign=middle;spacingLeft=3;spacingRight=3;strokeColor=none;rotatable=0;points=[[0,0.5],[1,0.5]];portConstraint=eastwest;html=1;" parent="1" vertex="1">
          <mxGeometry x="3155" y="966" width="80" height="26" as="geometry" />
        </mxCell>
        <mxCell id="MAZJIAtfugC3xBqzafZV-30" value="Extends" style="endArrow=block;endSize=16;endFill=0;html=1;rounded=0;" parent="1" source="MAZJIAtfugC3xBqzafZV-10" target="TkMuKhfuhFKeFU8Ec0d0-7" edge="1">
          <mxGeometry width="160" relative="1" as="geometry">
            <mxPoint x="2750" y="849" as="sourcePoint" />
            <mxPoint x="2940" y="843" as="targetPoint" />
          </mxGeometry>
        </mxCell>
        <mxCell id="MAZJIAtfugC3xBqzafZV-31" value="1" style="endArrow=open;html=1;endSize=12;startArrow=diamondThin;startSize=14;startFill=1;edgeStyle=orthogonalEdgeStyle;align=left;verticalAlign=bottom;rounded=0;" parent="1" source="WK8QcCtqM6LGEKZtqocS-52" target="MAZJIAtfugC3xBqzafZV-10" edge="1">
          <mxGeometry x="-1" y="3" relative="1" as="geometry">
            <mxPoint x="3070" y="264" as="sourcePoint" />
            <mxPoint x="3190" y="310" as="targetPoint" />
            <Array as="points">
              <mxPoint x="3460" y="230" />
              <mxPoint x="3460" y="1009" />
            </Array>
          </mxGeometry>
        </mxCell>
        <mxCell id="xK-nOmwzQzCZtX6LUSqM-1" value="Use" style="endArrow=open;endSize=12;dashed=1;html=1;rounded=0;" parent="1" source="TkMuKhfuhFKeFU8Ec0d0-2" target="TkMuKhfuhFKeFU8Ec0d0-50" edge="1">
          <mxGeometry width="160" relative="1" as="geometry">
            <mxPoint x="3200" y="890" as="sourcePoint" />
            <mxPoint x="3360" y="890" as="targetPoint" />
            <Array as="points">
              <mxPoint x="2753" y="933" />
            </Array>
          </mxGeometry>
        </mxCell>
        <mxCell id="xK-nOmwzQzCZtX6LUSqM-2" value="&lt;p style=&quot;margin:0px;margin-top:4px;text-align:center;&quot;&gt;&amp;lt;interface&amp;gt;&lt;br style=&quot;border-color: var(--border-color); font-weight: 700;&quot;&gt;&lt;span style=&quot;font-weight: 700;&quot;&gt;GameLambda&lt;/span&gt;&lt;br&gt;&lt;/p&gt;" style="verticalAlign=top;align=left;overflow=fill;fontSize=12;fontFamily=Helvetica;html=1;whiteSpace=wrap;" parent="1" vertex="1">
          <mxGeometry x="3230" y="651.5" width="190" height="38" as="geometry" />
        </mxCell>
        <mxCell id="xK-nOmwzQzCZtX6LUSqM-3" value="&#xa;&lt;span style=&quot;color: rgb(0, 0, 0); font-family: Helvetica; font-size: 12px; font-style: normal; font-variant-ligatures: normal; font-variant-caps: normal; font-weight: 700; letter-spacing: normal; orphans: 2; text-align: center; text-indent: 0px; text-transform: none; widows: 2; word-spacing: 0px; -webkit-text-stroke-width: 0px; background-color: rgb(251, 251, 251); text-decoration-thickness: initial; text-decoration-style: initial; text-decoration-color: initial; float: none; display: inline !important;&quot;&gt;Game.PLUG.gameMath&lt;/span&gt;&#xa;&#xa;" style="text;align=center;fontStyle=1;verticalAlign=middle;spacingLeft=3;spacingRight=3;strokeColor=none;rotatable=0;points=[[0,0.5],[1,0.5]];portConstraint=eastwest;html=1;" parent="1" vertex="1">
          <mxGeometry x="3237.5" y="540.5" width="80" height="26" as="geometry" />
        </mxCell>
        <mxCell id="xK-nOmwzQzCZtX6LUSqM-4" value="&lt;p style=&quot;margin:0px;margin-top:4px;text-align:center;&quot;&gt;&amp;lt;interface&amp;gt;&lt;br style=&quot;border-color: var(--border-color); font-weight: 700;&quot;&gt;&lt;b&gt;GameCalculatorLambda&lt;/b&gt;&lt;br&gt;&lt;/p&gt;" style="verticalAlign=top;align=left;overflow=fill;fontSize=12;fontFamily=Helvetica;html=1;whiteSpace=wrap;" parent="1" vertex="1">
          <mxGeometry x="3230" y="564.5" width="190" height="38" as="geometry" />
        </mxCell>
        <mxCell id="xK-nOmwzQzCZtX6LUSqM-7" value="&lt;p style=&quot;margin:0px;margin-top:4px;text-align:center;&quot;&gt;&amp;lt;enum&amp;gt;&lt;br style=&quot;border-color: var(--border-color); font-weight: 700;&quot;&gt;&lt;span style=&quot;font-weight: 700;&quot;&gt;GameCalculator&lt;/span&gt;&lt;br&gt;&lt;/p&gt;" style="verticalAlign=top;align=left;overflow=fill;fontSize=12;fontFamily=Helvetica;html=1;whiteSpace=wrap;" parent="1" vertex="1">
          <mxGeometry x="3038.75" y="634" width="130" height="38" as="geometry" />
        </mxCell>
        <mxCell id="xK-nOmwzQzCZtX6LUSqM-8" value="Use" style="endArrow=open;endSize=12;dashed=1;html=1;rounded=0;exitX=0.75;exitY=0;exitDx=0;exitDy=0;" parent="1" source="TkMuKhfuhFKeFU8Ec0d0-2" target="xK-nOmwzQzCZtX6LUSqM-7" edge="1">
          <mxGeometry x="0.1209" y="1" width="160" relative="1" as="geometry">
            <mxPoint x="3087" y="940" as="sourcePoint" />
            <mxPoint x="3208" y="937" as="targetPoint" />
            <Array as="points">
              <mxPoint x="3030" y="840" />
              <mxPoint x="3104" y="840" />
            </Array>
            <mxPoint as="offset" />
          </mxGeometry>
        </mxCell>
        <mxCell id="xK-nOmwzQzCZtX6LUSqM-9" value="Use" style="endArrow=open;endSize=12;dashed=1;html=1;rounded=0;exitX=0.75;exitY=0;exitDx=0;exitDy=0;" parent="1" source="TkMuKhfuhFKeFU8Ec0d0-50" target="WK8QcCtqM6LGEKZtqocS-33" edge="1">
          <mxGeometry width="160" relative="1" as="geometry">
            <mxPoint x="2961" y="926" as="sourcePoint" />
            <mxPoint x="2793" y="833" as="targetPoint" />
            <Array as="points">
              <mxPoint x="2786" y="740" />
              <mxPoint x="2840" y="740" />
              <mxPoint x="2840" y="610" />
              <mxPoint x="2675" y="610" />
              <mxPoint x="2675" y="600" />
            </Array>
          </mxGeometry>
        </mxCell>
        <mxCell id="97C-OZt-_XCFiMHYIAJq-1" value="" style="shape=folder;fontStyle=1;spacingTop=10;tabWidth=40;tabHeight=14;tabPosition=left;html=1;whiteSpace=wrap;" parent="1" vertex="1">
          <mxGeometry x="2887" y="1300" width="187.5" height="265" as="geometry" />
        </mxCell>
        <mxCell id="97C-OZt-_XCFiMHYIAJq-2" value="ImageNamePath" style="swimlane;fontStyle=1;align=center;verticalAlign=top;childLayout=stackLayout;horizontal=1;startSize=26;horizontalStack=0;resizeParent=1;resizeParentMax=0;resizeLast=0;collapsible=1;marginBottom=0;whiteSpace=wrap;html=1;" parent="1" vertex="1">
          <mxGeometry x="2907" y="1512" width="147.5" height="34" as="geometry" />
        </mxCell>
        <mxCell id="97C-OZt-_XCFiMHYIAJq-3" value="" style="line;strokeWidth=1;fillColor=none;align=left;verticalAlign=middle;spacingTop=-1;spacingLeft=3;spacingRight=3;rotatable=0;labelPosition=right;points=[];portConstraint=eastwest;strokeColor=inherit;" parent="97C-OZt-_XCFiMHYIAJq-2" vertex="1">
          <mxGeometry y="26" width="147.5" height="8" as="geometry" />
        </mxCell>
        <mxCell id="97C-OZt-_XCFiMHYIAJq-4" value="GameElementLoader" style="swimlane;fontStyle=1;align=center;verticalAlign=top;childLayout=stackLayout;horizontal=1;startSize=26;horizontalStack=0;resizeParent=1;resizeParentMax=0;resizeLast=0;collapsible=1;marginBottom=0;whiteSpace=wrap;html=1;" parent="1" vertex="1">
          <mxGeometry x="2917" y="1356" width="137.5" height="34" as="geometry" />
        </mxCell>
        <mxCell id="97C-OZt-_XCFiMHYIAJq-5" value="" style="line;strokeWidth=1;fillColor=none;align=left;verticalAlign=middle;spacingTop=-1;spacingLeft=3;spacingRight=3;rotatable=0;labelPosition=right;points=[];portConstraint=eastwest;strokeColor=inherit;" parent="97C-OZt-_XCFiMHYIAJq-4" vertex="1">
          <mxGeometry y="26" width="137.5" height="8" as="geometry" />
        </mxCell>
        <mxCell id="97C-OZt-_XCFiMHYIAJq-6" value="ImageLoader" style="swimlane;fontStyle=1;align=center;verticalAlign=top;childLayout=stackLayout;horizontal=1;startSize=26;horizontalStack=0;resizeParent=1;resizeParentMax=0;resizeLast=0;collapsible=1;marginBottom=0;whiteSpace=wrap;html=1;" parent="1" vertex="1">
          <mxGeometry x="2927" y="1435" width="117.5" height="34" as="geometry" />
        </mxCell>
        <mxCell id="97C-OZt-_XCFiMHYIAJq-7" value="" style="line;strokeWidth=1;fillColor=none;align=left;verticalAlign=middle;spacingTop=-1;spacingLeft=3;spacingRight=3;rotatable=0;labelPosition=right;points=[];portConstraint=eastwest;strokeColor=inherit;" parent="97C-OZt-_XCFiMHYIAJq-6" vertex="1">
          <mxGeometry y="26" width="117.5" height="8" as="geometry" />
        </mxCell>
        <mxCell id="97C-OZt-_XCFiMHYIAJq-8" value="" style="shape=folder;fontStyle=1;spacingTop=10;tabWidth=40;tabHeight=14;tabPosition=left;html=1;whiteSpace=wrap;" parent="1" vertex="1">
          <mxGeometry x="3134.5" y="1346" width="177.5" height="168" as="geometry" />
        </mxCell>
        <mxCell id="97C-OZt-_XCFiMHYIAJq-9" value="BaseLoader" style="swimlane;fontStyle=1;align=center;verticalAlign=top;childLayout=stackLayout;horizontal=1;startSize=26;horizontalStack=0;resizeParent=1;resizeParentMax=0;resizeLast=0;collapsible=1;marginBottom=0;whiteSpace=wrap;html=1;" parent="1" vertex="1">
          <mxGeometry x="3177.5" y="1394" width="92.5" height="34" as="geometry" />
        </mxCell>
        <mxCell id="97C-OZt-_XCFiMHYIAJq-10" value="" style="line;strokeWidth=1;fillColor=none;align=left;verticalAlign=middle;spacingTop=-1;spacingLeft=3;spacingRight=3;rotatable=0;labelPosition=right;points=[];portConstraint=eastwest;strokeColor=inherit;" parent="97C-OZt-_XCFiMHYIAJq-9" vertex="1">
          <mxGeometry y="26" width="92.5" height="8" as="geometry" />
        </mxCell>
        <mxCell id="97C-OZt-_XCFiMHYIAJq-11" value="FileNameFormatter" style="swimlane;fontStyle=1;align=center;verticalAlign=top;childLayout=stackLayout;horizontal=1;startSize=26;horizontalStack=0;resizeParent=1;resizeParentMax=0;resizeLast=0;collapsible=1;marginBottom=0;whiteSpace=wrap;html=1;" parent="1" vertex="1">
          <mxGeometry x="3149.5" y="1454" width="148.5" height="34" as="geometry" />
        </mxCell>
        <mxCell id="97C-OZt-_XCFiMHYIAJq-12" value="" style="line;strokeWidth=1;fillColor=none;align=left;verticalAlign=middle;spacingTop=-1;spacingLeft=3;spacingRight=3;rotatable=0;labelPosition=right;points=[];portConstraint=eastwest;strokeColor=inherit;" parent="97C-OZt-_XCFiMHYIAJq-11" vertex="1">
          <mxGeometry y="26" width="148.5" height="8" as="geometry" />
        </mxCell>
        <mxCell id="97C-OZt-_XCFiMHYIAJq-13" value="Use" style="endArrow=open;endSize=12;dashed=1;html=1;rounded=0;" parent="1" source="97C-OZt-_XCFiMHYIAJq-4" target="97C-OZt-_XCFiMHYIAJq-6" edge="1">
          <mxGeometry width="160" relative="1" as="geometry">
            <mxPoint x="3187" y="1730" as="sourcePoint" />
            <mxPoint x="3347" y="1730" as="targetPoint" />
          </mxGeometry>
        </mxCell>
        <mxCell id="97C-OZt-_XCFiMHYIAJq-14" value="Use" style="endArrow=open;endSize=12;dashed=1;html=1;rounded=0;" parent="1" source="97C-OZt-_XCFiMHYIAJq-6" target="97C-OZt-_XCFiMHYIAJq-2" edge="1">
          <mxGeometry width="160" relative="1" as="geometry">
            <mxPoint x="3144" y="1520" as="sourcePoint" />
            <mxPoint x="3143" y="1564" as="targetPoint" />
          </mxGeometry>
        </mxCell>
        <mxCell id="97C-OZt-_XCFiMHYIAJq-15" value="Use" style="endArrow=open;endSize=12;dashed=1;html=1;rounded=0;" parent="1" source="97C-OZt-_XCFiMHYIAJq-1" target="97C-OZt-_XCFiMHYIAJq-8" edge="1">
          <mxGeometry width="160" relative="1" as="geometry">
            <mxPoint x="3179.5" y="1730" as="sourcePoint" />
            <mxPoint x="2794.5" y="1445.5303738317757" as="targetPoint" />
          </mxGeometry>
        </mxCell>
        <mxCell id="97C-OZt-_XCFiMHYIAJq-16" value="&#xa;&lt;span style=&quot;color: rgb(0, 0, 0); font-family: Helvetica; font-size: 12px; font-style: normal; font-variant-ligatures: normal; font-variant-caps: normal; font-weight: 700; letter-spacing: normal; orphans: 2; text-align: center; text-indent: 0px; text-transform: none; widows: 2; word-spacing: 0px; -webkit-text-stroke-width: 0px; background-color: rgb(251, 251, 251); text-decoration-thickness: initial; text-decoration-style: initial; text-decoration-color: initial; float: none; display: inline !important;&quot;&gt;Game.Loader&lt;/span&gt;&#xa;&#xa;" style="text;align=center;fontStyle=1;verticalAlign=middle;spacingLeft=3;spacingRight=3;strokeColor=none;rotatable=0;points=[[0,0.5],[1,0.5]];portConstraint=eastwest;html=1;" parent="1" vertex="1">
          <mxGeometry x="2887" y="1320" width="80" height="26" as="geometry" />
        </mxCell>
        <mxCell id="97C-OZt-_XCFiMHYIAJq-17" value="&#xa;&lt;span style=&quot;color: rgb(0, 0, 0); font-family: Helvetica; font-size: 12px; font-style: normal; font-variant-ligatures: normal; font-variant-caps: normal; font-weight: 700; letter-spacing: normal; orphans: 2; text-align: center; text-indent: 0px; text-transform: none; widows: 2; word-spacing: 0px; -webkit-text-stroke-width: 0px; background-color: rgb(251, 251, 251); text-decoration-thickness: initial; text-decoration-style: initial; text-decoration-color: initial; float: none; display: inline !important;&quot;&gt;base.loader&lt;/span&gt;&#xa;&#xa;" style="text;align=center;fontStyle=1;verticalAlign=middle;spacingLeft=3;spacingRight=3;strokeColor=none;rotatable=0;points=[[0,0.5],[1,0.5]];portConstraint=eastwest;html=1;" parent="1" vertex="1">
          <mxGeometry x="3136" y="1364" width="80" height="26" as="geometry" />
        </mxCell>
        <mxCell id="97C-OZt-_XCFiMHYIAJq-18" value="Use" style="endArrow=open;endSize=12;dashed=1;html=1;rounded=0;exitX=0.5;exitY=1;exitDx=0;exitDy=0;exitPerimeter=0;entryX=0;entryY=0;entryDx=113.75;entryDy=14;entryPerimeter=0;" parent="1" source="MAZJIAtfugC3xBqzafZV-9" target="97C-OZt-_XCFiMHYIAJq-1" edge="1">
          <mxGeometry width="160" relative="1" as="geometry">
            <mxPoint x="3010" y="1150" as="sourcePoint" />
            <mxPoint x="3170" y="1150" as="targetPoint" />
            <Array as="points">
              <mxPoint x="3285" y="1250" />
              <mxPoint x="3000" y="1250" />
            </Array>
          </mxGeometry>
        </mxCell>
        <mxCell id="97C-OZt-_XCFiMHYIAJq-19" value="Use" style="endArrow=open;endSize=12;dashed=1;html=1;rounded=0;entryX=0;entryY=0;entryDx=0;entryDy=76.75;entryPerimeter=0;" parent="1" target="97C-OZt-_XCFiMHYIAJq-1" edge="1">
          <mxGeometry x="-0.0097" y="-3" width="160" relative="1" as="geometry">
            <mxPoint x="2680" y="1230" as="sourcePoint" />
            <mxPoint x="3085" y="1332" as="targetPoint" />
            <Array as="points">
              <mxPoint x="2680" y="1377" />
            </Array>
            <mxPoint as="offset" />
          </mxGeometry>
        </mxCell>
        <mxCell id="97C-OZt-_XCFiMHYIAJq-20" value="Use" style="endArrow=open;endSize=12;dashed=1;html=1;rounded=0;" parent="1" source="WK8QcCtqM6LGEKZtqocS-33" target="97C-OZt-_XCFiMHYIAJq-1" edge="1">
          <mxGeometry width="160" relative="1" as="geometry">
            <mxPoint x="2310" y="1220" as="sourcePoint" />
            <mxPoint x="2897" y="1357" as="targetPoint" />
            <Array as="points">
              <mxPoint x="2520" y="554" />
              <mxPoint x="2520" y="1433" />
            </Array>
          </mxGeometry>
        </mxCell>
      </root>
    </mxGraphModel>
  </diagram>
  <diagram name="Render_Update" id="L8YiCF-CYrVQ3MybJ85n">
    <mxGraphModel dx="-1050" dy="2009" grid="1" gridSize="10" guides="1" tooltips="1" connect="1" arrows="1" fold="1" page="1" pageScale="1" pageWidth="827" pageHeight="1169" math="0" shadow="0">
      <root>
        <mxCell id="0" />
        <mxCell id="1" parent="0" />
        <mxCell id="iSJ-3iAu43QBJBqTQ3BI-1" value="" style="shape=folder;fontStyle=1;spacingTop=10;tabWidth=40;tabHeight=14;tabPosition=left;html=1;whiteSpace=wrap;" parent="1" vertex="1">
          <mxGeometry x="2970" y="-930" width="780" height="360" as="geometry" />
        </mxCell>
        <mxCell id="iSJ-3iAu43QBJBqTQ3BI-2" value="&lt;p style=&quot;margin:0px;margin-top:4px;text-align:center;&quot;&gt;&lt;i&gt;&amp;lt;&amp;lt;Interface&amp;gt;&amp;gt;&lt;/i&gt;&lt;br&gt;&lt;b&gt;GameRenderOffsetPass&lt;/b&gt;&lt;br&gt;&lt;/p&gt;&lt;hr size=&quot;1&quot;&gt;&lt;p style=&quot;margin:0px;margin-left:4px;&quot;&gt;+void passOffset(float)&lt;br&gt;&lt;/p&gt;&lt;p style=&quot;margin:0px;margin-left:4px;&quot;&gt;&lt;br&gt;&lt;/p&gt;" style="verticalAlign=top;align=left;overflow=fill;fontSize=12;fontFamily=Helvetica;html=1;whiteSpace=wrap;" parent="1" vertex="1">
          <mxGeometry x="3020" y="-860" width="190" height="70" as="geometry" />
        </mxCell>
        <mxCell id="iSJ-3iAu43QBJBqTQ3BI-3" value="&lt;p style=&quot;margin:0px;margin-top:4px;text-align:center;&quot;&gt;&lt;i&gt;&amp;lt;&amp;lt;Interface&amp;gt;&amp;gt;&lt;/i&gt;&lt;br&gt;&lt;b&gt;GameRenderInterface&lt;/b&gt;&lt;br&gt;&lt;/p&gt;&lt;hr size=&quot;1&quot;&gt;&lt;p style=&quot;margin:0px;margin-left:4px;&quot;&gt;+void render(Graphics)&lt;br&gt;&lt;/p&gt;&lt;p style=&quot;margin:0px;margin-left:4px;&quot;&gt;&lt;br&gt;&lt;/p&gt;" style="verticalAlign=top;align=left;overflow=fill;fontSize=12;fontFamily=Helvetica;html=1;whiteSpace=wrap;" parent="1" vertex="1">
          <mxGeometry x="3265" y="-880" width="190" height="70" as="geometry" />
        </mxCell>
        <mxCell id="iSJ-3iAu43QBJBqTQ3BI-4" value="&lt;p style=&quot;margin:0px;margin-top:4px;text-align:center;&quot;&gt;&lt;i&gt;&amp;lt;&amp;lt;Interface&amp;gt;&amp;gt;&lt;/i&gt;&lt;br&gt;&lt;b&gt;GameUpdateInterface&lt;/b&gt;&lt;br&gt;&lt;/p&gt;&lt;hr size=&quot;1&quot;&gt;&lt;p style=&quot;margin:0px;margin-left:4px;&quot;&gt;+void update()&lt;/p&gt;" style="verticalAlign=top;align=left;overflow=fill;fontSize=12;fontFamily=Helvetica;html=1;whiteSpace=wrap;" parent="1" vertex="1">
          <mxGeometry x="3510" y="-880" width="170" height="70" as="geometry" />
        </mxCell>
        <mxCell id="iSJ-3iAu43QBJBqTQ3BI-5" value="«interface»&lt;br&gt;&lt;b&gt;GameAnimatedDrawer&lt;/b&gt;" style="html=1;whiteSpace=wrap;" parent="1" vertex="1">
          <mxGeometry x="3210" y="-710" width="300" height="110" as="geometry" />
        </mxCell>
        <mxCell id="iSJ-3iAu43QBJBqTQ3BI-6" value="Extends" style="endArrow=block;endSize=16;endFill=0;html=1;rounded=0;exitX=0.918;exitY=-0.011;exitDx=0;exitDy=0;exitPerimeter=0;" parent="1" source="iSJ-3iAu43QBJBqTQ3BI-5" target="iSJ-3iAu43QBJBqTQ3BI-4" edge="1">
          <mxGeometry x="-0.1016" width="160" relative="1" as="geometry">
            <mxPoint x="3400" y="-580" as="sourcePoint" />
            <mxPoint x="3560" y="-580" as="targetPoint" />
            <Array as="points">
              <mxPoint x="3485" y="-750" />
              <mxPoint x="3595" y="-750" />
            </Array>
            <mxPoint as="offset" />
          </mxGeometry>
        </mxCell>
        <mxCell id="iSJ-3iAu43QBJBqTQ3BI-7" value="Extends" style="endArrow=block;endSize=16;endFill=0;html=1;rounded=0;" parent="1" source="iSJ-3iAu43QBJBqTQ3BI-5" target="iSJ-3iAu43QBJBqTQ3BI-3" edge="1">
          <mxGeometry width="160" relative="1" as="geometry">
            <mxPoint x="3446" y="-700" as="sourcePoint" />
            <mxPoint x="3557" y="-780" as="targetPoint" />
          </mxGeometry>
        </mxCell>
        <mxCell id="iSJ-3iAu43QBJBqTQ3BI-11" value="" style="shape=folder;fontStyle=1;spacingTop=10;tabWidth=40;tabHeight=14;tabPosition=left;html=1;whiteSpace=wrap;" parent="1" vertex="1">
          <mxGeometry x="2850" y="-493.67" width="165" height="100.33" as="geometry" />
        </mxCell>
        <mxCell id="iSJ-3iAu43QBJBqTQ3BI-12" value="Player" style="swimlane;fontStyle=1;align=center;verticalAlign=top;childLayout=stackLayout;horizontal=1;startSize=26;horizontalStack=0;resizeParent=1;resizeParentMax=0;resizeLast=0;collapsible=1;marginBottom=0;whiteSpace=wrap;html=1;" parent="1" vertex="1">
          <mxGeometry x="2885" y="-446.67" width="105" height="34" as="geometry" />
        </mxCell>
        <mxCell id="iSJ-3iAu43QBJBqTQ3BI-14" value="" style="line;strokeWidth=1;fillColor=none;align=left;verticalAlign=middle;spacingTop=-1;spacingLeft=3;spacingRight=3;rotatable=0;labelPosition=right;points=[];portConstraint=eastwest;strokeColor=inherit;" parent="iSJ-3iAu43QBJBqTQ3BI-12" vertex="1">
          <mxGeometry y="26" width="105" height="8" as="geometry" />
        </mxCell>
        <mxCell id="iSJ-3iAu43QBJBqTQ3BI-23" value="" style="shape=folder;fontStyle=1;spacingTop=10;tabWidth=40;tabHeight=14;tabPosition=left;html=1;whiteSpace=wrap;" parent="1" vertex="1">
          <mxGeometry x="2760" y="-720" width="170" height="97.83" as="geometry" />
        </mxCell>
        <mxCell id="iSJ-3iAu43QBJBqTQ3BI-24" value="Rain" style="swimlane;fontStyle=1;align=center;verticalAlign=top;childLayout=stackLayout;horizontal=1;startSize=26;horizontalStack=0;resizeParent=1;resizeParentMax=0;resizeLast=0;collapsible=1;marginBottom=0;whiteSpace=wrap;html=1;" parent="1" vertex="1">
          <mxGeometry x="2780" y="-671.5" width="130" height="34" as="geometry" />
        </mxCell>
        <mxCell id="iSJ-3iAu43QBJBqTQ3BI-25" value="" style="line;strokeWidth=1;fillColor=none;align=left;verticalAlign=middle;spacingTop=-1;spacingLeft=3;spacingRight=3;rotatable=0;labelPosition=right;points=[];portConstraint=eastwest;strokeColor=inherit;" parent="iSJ-3iAu43QBJBqTQ3BI-24" vertex="1">
          <mxGeometry y="26" width="130" height="8" as="geometry" />
        </mxCell>
        <mxCell id="iSJ-3iAu43QBJBqTQ3BI-29" value="" style="shape=folder;fontStyle=1;spacingTop=10;tabWidth=40;tabHeight=14;tabPosition=left;html=1;whiteSpace=wrap;" parent="1" vertex="1">
          <mxGeometry x="3050" y="-493.6700000000001" width="410" height="126.75" as="geometry" />
        </mxCell>
        <mxCell id="iSJ-3iAu43QBJBqTQ3BI-34" value="GameEnemyManager" style="swimlane;fontStyle=1;align=center;verticalAlign=top;childLayout=stackLayout;horizontal=1;startSize=26;horizontalStack=0;resizeParent=1;resizeParentMax=0;resizeLast=0;collapsible=1;marginBottom=0;whiteSpace=wrap;html=1;" parent="1" vertex="1">
          <mxGeometry x="3260" y="-434.66999999999996" width="194" height="34" as="geometry" />
        </mxCell>
        <mxCell id="iSJ-3iAu43QBJBqTQ3BI-36" value="" style="line;strokeWidth=1;fillColor=none;align=left;verticalAlign=middle;spacingTop=-1;spacingLeft=3;spacingRight=3;rotatable=0;labelPosition=right;points=[];portConstraint=eastwest;strokeColor=inherit;" parent="iSJ-3iAu43QBJBqTQ3BI-34" vertex="1">
          <mxGeometry y="26" width="194" height="8" as="geometry" />
        </mxCell>
        <mxCell id="iSJ-3iAu43QBJBqTQ3BI-38" value="GameLevelManager" style="swimlane;fontStyle=1;align=center;verticalAlign=top;childLayout=stackLayout;horizontal=1;startSize=26;horizontalStack=0;resizeParent=1;resizeParentMax=0;resizeLast=0;collapsible=1;marginBottom=0;whiteSpace=wrap;html=1;" parent="1" vertex="1">
          <mxGeometry x="3070" y="-434.66999999999996" width="164" height="34" as="geometry" />
        </mxCell>
        <mxCell id="iSJ-3iAu43QBJBqTQ3BI-40" value="" style="line;strokeWidth=1;fillColor=none;align=left;verticalAlign=middle;spacingTop=-1;spacingLeft=3;spacingRight=3;rotatable=0;labelPosition=right;points=[];portConstraint=eastwest;strokeColor=inherit;" parent="iSJ-3iAu43QBJBqTQ3BI-38" vertex="1">
          <mxGeometry y="26" width="164" height="8" as="geometry" />
        </mxCell>
        <mxCell id="iSJ-3iAu43QBJBqTQ3BI-43" value="" style="shape=folder;fontStyle=1;spacingTop=10;tabWidth=40;tabHeight=14;tabPosition=left;html=1;whiteSpace=wrap;" parent="1" vertex="1">
          <mxGeometry x="3530" y="-519.67" width="247" height="240.33" as="geometry" />
        </mxCell>
        <mxCell id="iSJ-3iAu43QBJBqTQ3BI-44" value="BasicGameCharacterABC" style="swimlane;fontStyle=1;align=center;verticalAlign=top;childLayout=stackLayout;horizontal=1;startSize=26;horizontalStack=0;resizeParent=1;resizeParentMax=0;resizeLast=0;collapsible=1;marginBottom=0;whiteSpace=wrap;html=1;" parent="1" vertex="1">
          <mxGeometry x="3555" y="-473.28999999999996" width="197" height="34" as="geometry" />
        </mxCell>
        <mxCell id="iSJ-3iAu43QBJBqTQ3BI-46" value="" style="line;strokeWidth=1;fillColor=none;align=left;verticalAlign=middle;spacingTop=-1;spacingLeft=3;spacingRight=3;rotatable=0;labelPosition=right;points=[];portConstraint=eastwest;strokeColor=inherit;" parent="iSJ-3iAu43QBJBqTQ3BI-44" vertex="1">
          <mxGeometry y="26" width="197" height="8" as="geometry" />
        </mxCell>
        <mxCell id="iSJ-3iAu43QBJBqTQ3BI-49" value="GameCharacterABC" style="swimlane;fontStyle=1;align=center;verticalAlign=top;childLayout=stackLayout;horizontal=1;startSize=26;horizontalStack=0;resizeParent=1;resizeParentMax=0;resizeLast=0;collapsible=1;marginBottom=0;whiteSpace=wrap;html=1;" parent="1" vertex="1">
          <mxGeometry x="3555" y="-412.66999999999996" width="197" height="34" as="geometry" />
        </mxCell>
        <mxCell id="iSJ-3iAu43QBJBqTQ3BI-51" value="" style="line;strokeWidth=1;fillColor=none;align=left;verticalAlign=middle;spacingTop=-1;spacingLeft=3;spacingRight=3;rotatable=0;labelPosition=right;points=[];portConstraint=eastwest;strokeColor=inherit;" parent="iSJ-3iAu43QBJBqTQ3BI-49" vertex="1">
          <mxGeometry y="26" width="197" height="8" as="geometry" />
        </mxCell>
        <mxCell id="iSJ-3iAu43QBJBqTQ3BI-54" value="GameEnemyABC" style="swimlane;fontStyle=1;align=center;verticalAlign=top;childLayout=stackLayout;horizontal=1;startSize=26;horizontalStack=0;resizeParent=1;resizeParentMax=0;resizeLast=0;collapsible=1;marginBottom=0;whiteSpace=wrap;html=1;" parent="1" vertex="1">
          <mxGeometry x="3555" y="-344.66999999999996" width="197" height="34" as="geometry" />
        </mxCell>
        <mxCell id="iSJ-3iAu43QBJBqTQ3BI-56" value="" style="line;strokeWidth=1;fillColor=none;align=left;verticalAlign=middle;spacingTop=-1;spacingLeft=3;spacingRight=3;rotatable=0;labelPosition=right;points=[];portConstraint=eastwest;strokeColor=inherit;" parent="iSJ-3iAu43QBJBqTQ3BI-54" vertex="1">
          <mxGeometry y="26" width="197" height="8" as="geometry" />
        </mxCell>
        <mxCell id="iSJ-3iAu43QBJBqTQ3BI-59" value="" style="shape=folder;fontStyle=1;spacingTop=10;tabWidth=40;tabHeight=14;tabPosition=left;html=1;whiteSpace=wrap;" parent="1" vertex="1">
          <mxGeometry x="3777" y="-732" width="180" height="132" as="geometry" />
        </mxCell>
        <mxCell id="iSJ-3iAu43QBJBqTQ3BI-60" value="Game" style="swimlane;fontStyle=1;align=center;verticalAlign=top;childLayout=stackLayout;horizontal=1;startSize=26;horizontalStack=0;resizeParent=1;resizeParentMax=0;resizeLast=0;collapsible=1;marginBottom=0;whiteSpace=wrap;html=1;" parent="1" vertex="1">
          <mxGeometry x="3817" y="-674.17" width="100" height="34" as="geometry" />
        </mxCell>
        <mxCell id="iSJ-3iAu43QBJBqTQ3BI-62" value="" style="line;strokeWidth=1;fillColor=none;align=left;verticalAlign=middle;spacingTop=-1;spacingLeft=3;spacingRight=3;rotatable=0;labelPosition=right;points=[];portConstraint=eastwest;strokeColor=inherit;" parent="iSJ-3iAu43QBJBqTQ3BI-60" vertex="1">
          <mxGeometry y="26" width="100" height="8" as="geometry" />
        </mxCell>
        <mxCell id="iSJ-3iAu43QBJBqTQ3BI-78" value="" style="endArrow=block;dashed=1;endFill=0;endSize=12;html=1;rounded=0;exitX=0.5;exitY=1;exitDx=0;exitDy=0;entryX=0.963;entryY=1.014;entryDx=0;entryDy=0;entryPerimeter=0;" parent="1" source="iSJ-3iAu43QBJBqTQ3BI-54" target="iSJ-3iAu43QBJBqTQ3BI-5" edge="1">
          <mxGeometry width="160" relative="1" as="geometry">
            <mxPoint x="3340" y="-470.33000000000004" as="sourcePoint" />
            <mxPoint x="3499.587912087912" y="-450.33000000000004" as="targetPoint" />
            <Array as="points">
              <mxPoint x="3654" y="-210" />
              <mxPoint x="3500" y="-210" />
            </Array>
          </mxGeometry>
        </mxCell>
        <mxCell id="iSJ-3iAu43QBJBqTQ3BI-79" value="" style="endArrow=block;dashed=1;endFill=0;endSize=12;html=1;rounded=0;" parent="1" source="iSJ-3iAu43QBJBqTQ3BI-34" target="iSJ-3iAu43QBJBqTQ3BI-5" edge="1">
          <mxGeometry width="160" relative="1" as="geometry">
            <mxPoint x="3052" y="-244.32999999999998" as="sourcePoint" />
            <mxPoint x="3392.4065420560746" y="-450.33000000000004" as="targetPoint" />
          </mxGeometry>
        </mxCell>
        <mxCell id="iSJ-3iAu43QBJBqTQ3BI-80" value="" style="endArrow=block;dashed=1;endFill=0;endSize=12;html=1;rounded=0;entryX=0;entryY=1;entryDx=0;entryDy=0;" parent="1" source="iSJ-3iAu43QBJBqTQ3BI-38" target="iSJ-3iAu43QBJBqTQ3BI-5" edge="1">
          <mxGeometry width="160" relative="1" as="geometry">
            <mxPoint x="3338" y="-347.33" as="sourcePoint" />
            <mxPoint x="3440" y="-440" as="targetPoint" />
            <Array as="points">
              <mxPoint x="3152" y="-600" />
            </Array>
          </mxGeometry>
        </mxCell>
        <mxCell id="iSJ-3iAu43QBJBqTQ3BI-81" value="" style="endArrow=block;dashed=1;endFill=0;endSize=12;html=1;rounded=0;" parent="1" source="iSJ-3iAu43QBJBqTQ3BI-24" target="iSJ-3iAu43QBJBqTQ3BI-5" edge="1">
          <mxGeometry width="160" relative="1" as="geometry">
            <mxPoint x="3348" y="-337.33" as="sourcePoint" />
            <mxPoint x="3310" y="-460.00153284671535" as="targetPoint" />
          </mxGeometry>
        </mxCell>
        <mxCell id="iSJ-3iAu43QBJBqTQ3BI-82" value="" style="endArrow=block;dashed=1;endFill=0;endSize=12;html=1;rounded=0;entryX=0;entryY=0.75;entryDx=0;entryDy=0;exitX=1;exitY=0;exitDx=0;exitDy=0;" parent="1" source="iSJ-3iAu43QBJBqTQ3BI-12" target="iSJ-3iAu43QBJBqTQ3BI-5" edge="1">
          <mxGeometry width="160" relative="1" as="geometry">
            <mxPoint x="3358" y="-327.33" as="sourcePoint" />
            <mxPoint x="3324.542079207921" y="-450.33000000000004" as="targetPoint" />
            <Array as="points">
              <mxPoint x="2990" y="-627" />
            </Array>
          </mxGeometry>
        </mxCell>
        <mxCell id="iSJ-3iAu43QBJBqTQ3BI-83" value="" style="endArrow=block;dashed=1;endFill=0;endSize=12;html=1;rounded=0;" parent="1" source="iSJ-3iAu43QBJBqTQ3BI-60" target="iSJ-3iAu43QBJBqTQ3BI-5" edge="1">
          <mxGeometry width="160" relative="1" as="geometry">
            <mxPoint x="3368" y="-317.33" as="sourcePoint" />
            <mxPoint x="3574" y="-450" as="targetPoint" />
          </mxGeometry>
        </mxCell>
        <mxCell id="iSJ-3iAu43QBJBqTQ3BI-84" value="" style="endArrow=block;dashed=1;endFill=0;endSize=12;html=1;rounded=0;exitX=0.25;exitY=0;exitDx=0;exitDy=0;" parent="1" source="iSJ-3iAu43QBJBqTQ3BI-38" target="iSJ-3iAu43QBJBqTQ3BI-2" edge="1">
          <mxGeometry width="160" relative="1" as="geometry">
            <mxPoint x="3270" y="-435" as="sourcePoint" />
            <mxPoint x="3344" y="-590" as="targetPoint" />
          </mxGeometry>
        </mxCell>
        <mxCell id="iSJ-3iAu43QBJBqTQ3BI-85" value="" style="endArrow=block;dashed=1;endFill=0;endSize=12;html=1;rounded=0;entryX=0;entryY=0.5;entryDx=0;entryDy=0;" parent="1" source="iSJ-3iAu43QBJBqTQ3BI-24" target="iSJ-3iAu43QBJBqTQ3BI-2" edge="1">
          <mxGeometry width="160" relative="1" as="geometry">
            <mxPoint x="3280" y="-425" as="sourcePoint" />
            <mxPoint x="3354" y="-580" as="targetPoint" />
            <Array as="points">
              <mxPoint x="2845" y="-825" />
            </Array>
          </mxGeometry>
        </mxCell>
        <mxCell id="iSJ-3iAu43QBJBqTQ3BI-86" value="" style="endArrow=block;dashed=1;endFill=0;endSize=12;html=1;rounded=0;entryX=0.25;entryY=1;entryDx=0;entryDy=0;" parent="1" target="iSJ-3iAu43QBJBqTQ3BI-2" edge="1">
          <mxGeometry width="160" relative="1" as="geometry">
            <mxPoint x="2960" y="-450" as="sourcePoint" />
            <mxPoint x="3364" y="-570" as="targetPoint" />
            <Array as="points">
              <mxPoint x="2960" y="-690" />
              <mxPoint x="3068" y="-690" />
            </Array>
          </mxGeometry>
        </mxCell>
        <mxCell id="URMEeE8pMweaO-fOqOp9-1" value="&#xa;&lt;span style=&quot;color: rgb(0, 0, 0); font-family: Helvetica; font-size: 12px; font-style: normal; font-variant-ligatures: normal; font-variant-caps: normal; font-weight: 700; letter-spacing: normal; orphans: 2; text-align: center; text-indent: 0px; text-transform: none; widows: 2; word-spacing: 0px; -webkit-text-stroke-width: 0px; background-color: rgb(251, 251, 251); text-decoration-thickness: initial; text-decoration-style: initial; text-decoration-color: initial; float: none; display: inline !important;&quot;&gt;Game.PLUG.gameDrawer&lt;/span&gt;&#xa;&#xa;" style="text;align=center;fontStyle=1;verticalAlign=middle;spacingLeft=3;spacingRight=3;strokeColor=none;rotatable=0;points=[[0,0.5],[1,0.5]];portConstraint=eastwest;html=1;" parent="1" vertex="1">
          <mxGeometry x="3010" y="-906" width="80" height="26" as="geometry" />
        </mxCell>
        <mxCell id="URMEeE8pMweaO-fOqOp9-2" value="&#xa;&lt;span style=&quot;color: rgb(0, 0, 0); font-family: Helvetica; font-size: 12px; font-style: normal; font-variant-ligatures: normal; font-variant-caps: normal; font-weight: 700; letter-spacing: normal; orphans: 2; text-align: center; text-indent: 0px; text-transform: none; widows: 2; word-spacing: 0px; -webkit-text-stroke-width: 0px; background-color: rgb(251, 251, 251); text-decoration-thickness: initial; text-decoration-style: initial; text-decoration-color: initial; float: none; display: inline !important;&quot;&gt;Game.effects&lt;/span&gt;&#xa;&#xa;" style="text;align=center;fontStyle=1;verticalAlign=middle;spacingLeft=3;spacingRight=3;strokeColor=none;rotatable=0;points=[[0,0.5],[1,0.5]];portConstraint=eastwest;html=1;" parent="1" vertex="1">
          <mxGeometry x="2760" y="-697.5" width="80" height="26" as="geometry" />
        </mxCell>
        <mxCell id="URMEeE8pMweaO-fOqOp9-3" value="&#xa;&lt;span style=&quot;color: rgb(0, 0, 0); font-family: Helvetica; font-size: 12px; font-style: normal; font-variant-ligatures: normal; font-variant-caps: normal; font-weight: 700; letter-spacing: normal; orphans: 2; text-align: center; text-indent: 0px; text-transform: none; widows: 2; word-spacing: 0px; -webkit-text-stroke-width: 0px; background-color: rgb(251, 251, 251); text-decoration-thickness: initial; text-decoration-style: initial; text-decoration-color: initial; float: none; display: inline !important;&quot;&gt;Game&lt;/span&gt;&#xa;&#xa;" style="text;align=center;fontStyle=1;verticalAlign=middle;spacingLeft=3;spacingRight=3;strokeColor=none;rotatable=0;points=[[0,0.5],[1,0.5]];portConstraint=eastwest;html=1;" parent="1" vertex="1">
          <mxGeometry x="2840" y="-473.34" width="80" height="26" as="geometry" />
        </mxCell>
        <mxCell id="URMEeE8pMweaO-fOqOp9-4" value="&#xa;&lt;span style=&quot;color: rgb(0, 0, 0); font-family: Helvetica; font-size: 12px; font-style: normal; font-variant-ligatures: normal; font-variant-caps: normal; font-weight: 700; letter-spacing: normal; orphans: 2; text-align: center; text-indent: 0px; text-transform: none; widows: 2; word-spacing: 0px; -webkit-text-stroke-width: 0px; background-color: rgb(251, 251, 251); text-decoration-thickness: initial; text-decoration-style: initial; text-decoration-color: initial; float: none; display: inline !important;&quot;&gt;Game.gameBackground&lt;/span&gt;&#xa;&#xa;" style="text;align=center;fontStyle=1;verticalAlign=middle;spacingLeft=3;spacingRight=3;strokeColor=none;rotatable=0;points=[[0,0.5],[1,0.5]];portConstraint=eastwest;html=1;" parent="1" vertex="1">
          <mxGeometry x="3090" y="-468.66999999999996" width="80" height="26" as="geometry" />
        </mxCell>
        <mxCell id="URMEeE8pMweaO-fOqOp9-5" value="&#xa;&lt;span style=&quot;color: rgb(0, 0, 0); font-family: Helvetica; font-size: 12px; font-style: normal; font-variant-ligatures: normal; font-variant-caps: normal; font-weight: 700; letter-spacing: normal; orphans: 2; text-align: center; text-indent: 0px; text-transform: none; widows: 2; word-spacing: 0px; -webkit-text-stroke-width: 0px; background-color: rgb(251, 251, 251); text-decoration-thickness: initial; text-decoration-style: initial; text-decoration-color: initial; float: none; display: inline !important;&quot;&gt;Game.role.ABC&lt;/span&gt;&#xa;&#xa;" style="text;align=center;fontStyle=1;verticalAlign=middle;spacingLeft=3;spacingRight=3;strokeColor=none;rotatable=0;points=[[0,0.5],[1,0.5]];portConstraint=eastwest;html=1;" parent="1" vertex="1">
          <mxGeometry x="3537" y="-494.66999999999996" width="80" height="26" as="geometry" />
        </mxCell>
        <mxCell id="URMEeE8pMweaO-fOqOp9-7" value="Extends" style="endArrow=block;endSize=16;endFill=0;html=1;rounded=0;" parent="1" source="iSJ-3iAu43QBJBqTQ3BI-49" target="iSJ-3iAu43QBJBqTQ3BI-44" edge="1">
          <mxGeometry width="160" relative="1" as="geometry">
            <mxPoint x="3607" y="-369.34000000000003" as="sourcePoint" />
            <mxPoint x="3767" y="-369.34000000000003" as="targetPoint" />
          </mxGeometry>
        </mxCell>
        <mxCell id="URMEeE8pMweaO-fOqOp9-8" value="Extends" style="endArrow=block;endSize=16;endFill=0;html=1;rounded=0;" parent="1" source="iSJ-3iAu43QBJBqTQ3BI-54" target="iSJ-3iAu43QBJBqTQ3BI-49" edge="1">
          <mxGeometry width="160" relative="1" as="geometry">
            <mxPoint x="3664" y="-402.34000000000003" as="sourcePoint" />
            <mxPoint x="3664" y="-429.34000000000003" as="targetPoint" />
          </mxGeometry>
        </mxCell>
        <mxCell id="URMEeE8pMweaO-fOqOp9-9" value="&#xa;&lt;span style=&quot;color: rgb(0, 0, 0); font-family: Helvetica; font-size: 12px; font-style: normal; font-variant-ligatures: normal; font-variant-caps: normal; font-weight: 700; letter-spacing: normal; orphans: 2; text-align: center; text-indent: 0px; text-transform: none; widows: 2; word-spacing: 0px; -webkit-text-stroke-width: 0px; background-color: rgb(251, 251, 251); text-decoration-thickness: initial; text-decoration-style: initial; text-decoration-color: initial; float: none; display: inline !important;&quot;&gt;Main&lt;/span&gt;&#xa;&#xa;" style="text;align=center;fontStyle=1;verticalAlign=middle;spacingLeft=3;spacingRight=3;strokeColor=none;rotatable=0;points=[[0,0.5],[1,0.5]];portConstraint=eastwest;html=1;" parent="1" vertex="1">
          <mxGeometry x="3770" y="-617.5" width="80" height="26" as="geometry" />
        </mxCell>
      </root>
    </mxGraphModel>
  </diagram>
  <diagram id="8DDHphx9Fvmj9QdhPxfs" name="Game.GUI">
    <mxGraphModel dx="-811" dy="2149" grid="1" gridSize="10" guides="1" tooltips="1" connect="1" arrows="1" fold="1" page="1" pageScale="1" pageWidth="827" pageHeight="1169" math="0" shadow="0">
      <root>
        <mxCell id="0" />
        <mxCell id="1" parent="0" />
        <mxCell id="BZMUy_NsCt3AsbC5G0al-1" value="Game.PLUG.gameDrawer" style="shape=folder;fontStyle=1;spacingTop=10;tabWidth=40;tabHeight=14;tabPosition=left;html=1;whiteSpace=wrap;" parent="1" vertex="1">
          <mxGeometry x="2930" y="-560" width="760" height="360" as="geometry" />
        </mxCell>
        <mxCell id="BZMUy_NsCt3AsbC5G0al-3" value="&lt;p style=&quot;margin:0px;margin-top:4px;text-align:center;&quot;&gt;&lt;i&gt;&amp;lt;&amp;lt;Interface&amp;gt;&amp;gt;&lt;/i&gt;&lt;br&gt;&lt;b&gt;GameRenderInterface&lt;/b&gt;&lt;br&gt;&lt;/p&gt;&lt;hr size=&quot;1&quot;&gt;&lt;p style=&quot;margin:0px;margin-left:4px;&quot;&gt;+void render(Graphics)&lt;br&gt;&lt;/p&gt;&lt;p style=&quot;margin:0px;margin-left:4px;&quot;&gt;&lt;br&gt;&lt;/p&gt;" style="verticalAlign=top;align=left;overflow=fill;fontSize=12;fontFamily=Helvetica;html=1;whiteSpace=wrap;" parent="1" vertex="1">
          <mxGeometry x="3000" y="-480" width="190" height="70" as="geometry" />
        </mxCell>
        <mxCell id="BZMUy_NsCt3AsbC5G0al-4" value="&lt;p style=&quot;margin:0px;margin-top:4px;text-align:center;&quot;&gt;&lt;i&gt;&amp;lt;&amp;lt;Interface&amp;gt;&amp;gt;&lt;/i&gt;&lt;br&gt;&lt;b&gt;GameUpdateInterface&lt;/b&gt;&lt;br&gt;&lt;/p&gt;&lt;hr size=&quot;1&quot;&gt;&lt;p style=&quot;margin:0px;margin-left:4px;&quot;&gt;+void update()&lt;/p&gt;" style="verticalAlign=top;align=left;overflow=fill;fontSize=12;fontFamily=Helvetica;html=1;whiteSpace=wrap;" parent="1" vertex="1">
          <mxGeometry x="3450" y="-480" width="170" height="70" as="geometry" />
        </mxCell>
        <mxCell id="BZMUy_NsCt3AsbC5G0al-5" value="«interface»&lt;br&gt;&lt;b&gt;GameAnimatedDrawer&lt;/b&gt;" style="html=1;whiteSpace=wrap;" parent="1" vertex="1">
          <mxGeometry x="3150" y="-340" width="300" height="110" as="geometry" />
        </mxCell>
        <mxCell id="BZMUy_NsCt3AsbC5G0al-6" value="Game.PLUG" style="shape=folder;fontStyle=1;spacingTop=10;tabWidth=40;tabHeight=14;tabPosition=left;html=1;whiteSpace=wrap;" parent="1" vertex="1">
          <mxGeometry x="3160" y="-180" width="280" height="130" as="geometry" />
        </mxCell>
        <mxCell id="BZMUy_NsCt3AsbC5G0al-7" value="«interface»&lt;br&gt;&lt;b&gt;GameStateMethod&lt;/b&gt;" style="html=1;whiteSpace=wrap;" parent="1" vertex="1">
          <mxGeometry x="3190" y="-150" width="220" height="80" as="geometry" />
        </mxCell>
        <mxCell id="BZMUy_NsCt3AsbC5G0al-9" value="Extends" style="endArrow=block;endSize=16;endFill=0;html=1;rounded=0;exitX=1;exitY=0.25;exitDx=0;exitDy=0;" parent="1" source="BZMUy_NsCt3AsbC5G0al-5" target="BZMUy_NsCt3AsbC5G0al-4" edge="1">
          <mxGeometry x="0.3443" width="160" relative="1" as="geometry">
            <mxPoint x="3340" y="-210" as="sourcePoint" />
            <mxPoint x="3500" y="-210" as="targetPoint" />
            <Array as="points">
              <mxPoint x="3535" y="-312" />
            </Array>
            <mxPoint as="offset" />
          </mxGeometry>
        </mxCell>
        <mxCell id="BZMUy_NsCt3AsbC5G0al-10" value="Extends" style="endArrow=block;endSize=16;endFill=0;html=1;rounded=0;exitX=-0.007;exitY=0.183;exitDx=0;exitDy=0;exitPerimeter=0;" parent="1" source="BZMUy_NsCt3AsbC5G0al-5" target="BZMUy_NsCt3AsbC5G0al-3" edge="1">
          <mxGeometry x="0.1603" width="160" relative="1" as="geometry">
            <mxPoint x="3386" y="-330" as="sourcePoint" />
            <mxPoint x="3497" y="-410" as="targetPoint" />
            <Array as="points">
              <mxPoint x="3095" y="-320" />
            </Array>
            <mxPoint as="offset" />
          </mxGeometry>
        </mxCell>
        <mxCell id="BZMUy_NsCt3AsbC5G0al-11" value="" style="endArrow=block;dashed=1;endFill=0;endSize=12;html=1;rounded=0;" parent="1" source="BZMUy_NsCt3AsbC5G0al-7" target="BZMUy_NsCt3AsbC5G0al-5" edge="1">
          <mxGeometry width="160" relative="1" as="geometry">
            <mxPoint x="3260" y="-160" as="sourcePoint" />
            <mxPoint x="3080" y="-140" as="targetPoint" />
          </mxGeometry>
        </mxCell>
        <mxCell id="BZMUy_NsCt3AsbC5G0al-12" value="" style="shape=folder;fontStyle=1;spacingTop=10;tabWidth=40;tabHeight=14;tabPosition=left;html=1;whiteSpace=wrap;" parent="1" vertex="1">
          <mxGeometry x="2810" y="-20" width="1120" height="580" as="geometry" />
        </mxCell>
        <mxCell id="BZMUy_NsCt3AsbC5G0al-17" value="GamePlaying" style="swimlane;fontStyle=1;align=center;verticalAlign=top;childLayout=stackLayout;horizontal=1;startSize=26;horizontalStack=0;resizeParent=1;resizeParentMax=0;resizeLast=0;collapsible=1;marginBottom=0;whiteSpace=wrap;html=1;" parent="1" vertex="1">
          <mxGeometry x="3484.32" y="201" width="110" height="34" as="geometry" />
        </mxCell>
        <mxCell id="BZMUy_NsCt3AsbC5G0al-19" value="" style="line;strokeWidth=1;fillColor=none;align=left;verticalAlign=middle;spacingTop=-1;spacingLeft=3;spacingRight=3;rotatable=0;labelPosition=right;points=[];portConstraint=eastwest;strokeColor=inherit;" parent="BZMUy_NsCt3AsbC5G0al-17" vertex="1">
          <mxGeometry y="26" width="110" height="8" as="geometry" />
        </mxCell>
        <mxCell id="BZMUy_NsCt3AsbC5G0al-21" value="GameMenu" style="swimlane;fontStyle=1;align=center;verticalAlign=top;childLayout=stackLayout;horizontal=1;startSize=26;horizontalStack=0;resizeParent=1;resizeParentMax=0;resizeLast=0;collapsible=1;marginBottom=0;whiteSpace=wrap;html=1;" parent="1" vertex="1">
          <mxGeometry x="3810" y="201" width="90" height="34" as="geometry" />
        </mxCell>
        <mxCell id="BZMUy_NsCt3AsbC5G0al-23" value="" style="line;strokeWidth=1;fillColor=none;align=left;verticalAlign=middle;spacingTop=-1;spacingLeft=3;spacingRight=3;rotatable=0;labelPosition=right;points=[];portConstraint=eastwest;strokeColor=inherit;" parent="BZMUy_NsCt3AsbC5G0al-21" vertex="1">
          <mxGeometry y="26" width="90" height="8" as="geometry" />
        </mxCell>
        <mxCell id="BZMUy_NsCt3AsbC5G0al-55" value="GameOptions" style="swimlane;fontStyle=1;align=center;verticalAlign=top;childLayout=stackLayout;horizontal=1;startSize=26;horizontalStack=0;resizeParent=1;resizeParentMax=0;resizeLast=0;collapsible=1;marginBottom=0;whiteSpace=wrap;html=1;" parent="1" vertex="1">
          <mxGeometry x="3722" y="279" width="130" height="34" as="geometry" />
        </mxCell>
        <mxCell id="BZMUy_NsCt3AsbC5G0al-57" value="" style="line;strokeWidth=1;fillColor=none;align=left;verticalAlign=middle;spacingTop=-1;spacingLeft=3;spacingRight=3;rotatable=0;labelPosition=right;points=[];portConstraint=eastwest;strokeColor=inherit;" parent="BZMUy_NsCt3AsbC5G0al-55" vertex="1">
          <mxGeometry y="26" width="130" height="8" as="geometry" />
        </mxCell>
        <mxCell id="BZMUy_NsCt3AsbC5G0al-60" value="GameCredits" style="swimlane;fontStyle=1;align=center;verticalAlign=top;childLayout=stackLayout;horizontal=1;startSize=26;horizontalStack=0;resizeParent=1;resizeParentMax=0;resizeLast=0;collapsible=1;marginBottom=0;whiteSpace=wrap;html=1;" parent="1" vertex="1">
          <mxGeometry x="3534.3199999999997" y="279" width="120" height="34" as="geometry" />
        </mxCell>
        <mxCell id="BZMUy_NsCt3AsbC5G0al-62" value="" style="line;strokeWidth=1;fillColor=none;align=left;verticalAlign=middle;spacingTop=-1;spacingLeft=3;spacingRight=3;rotatable=0;labelPosition=right;points=[];portConstraint=eastwest;strokeColor=inherit;" parent="BZMUy_NsCt3AsbC5G0al-60" vertex="1">
          <mxGeometry y="26" width="120" height="8" as="geometry" />
        </mxCell>
        <mxCell id="BZMUy_NsCt3AsbC5G0al-65" value="" style="endArrow=open;startArrow=circlePlus;endFill=0;startFill=0;endSize=8;html=1;rounded=0;" parent="1" source="BZMUy_NsCt3AsbC5G0al-60" target="BZMUy_NsCt3AsbC5G0al-66" edge="1">
          <mxGeometry width="160" relative="1" as="geometry">
            <mxPoint x="3438.17" y="421" as="sourcePoint" />
            <mxPoint x="3668.1700000000005" y="821" as="targetPoint" />
          </mxGeometry>
        </mxCell>
        <mxCell id="BZMUy_NsCt3AsbC5G0al-66" value="GameCredits.ShowGameCharacter" style="swimlane;fontStyle=1;align=center;verticalAlign=top;childLayout=stackLayout;horizontal=1;startSize=26;horizontalStack=0;resizeParent=1;resizeParentMax=0;resizeLast=0;collapsible=1;marginBottom=0;whiteSpace=wrap;html=1;" parent="1" vertex="1">
          <mxGeometry x="3470" y="367" width="248.63" height="34" as="geometry" />
        </mxCell>
        <mxCell id="BZMUy_NsCt3AsbC5G0al-68" value="" style="line;strokeWidth=1;fillColor=none;align=left;verticalAlign=middle;spacingTop=-1;spacingLeft=3;spacingRight=3;rotatable=0;labelPosition=right;points=[];portConstraint=eastwest;strokeColor=inherit;" parent="BZMUy_NsCt3AsbC5G0al-66" vertex="1">
          <mxGeometry y="26" width="248.63" height="8" as="geometry" />
        </mxCell>
        <mxCell id="P9T6MN1OVLE_-8v52j5T-2" value="" style="endArrow=block;dashed=1;endFill=0;endSize=12;html=1;rounded=0;entryX=0.463;entryY=1.007;entryDx=0;entryDy=0;entryPerimeter=0;exitX=0.202;exitY=-0.058;exitDx=0;exitDy=0;exitPerimeter=0;" parent="1" source="BZMUy_NsCt3AsbC5G0al-60" target="BZMUy_NsCt3AsbC5G0al-7" edge="1">
          <mxGeometry width="160" relative="1" as="geometry">
            <mxPoint x="3440" y="210" as="sourcePoint" />
            <mxPoint x="3600" y="210" as="targetPoint" />
            <Array as="points">
              <mxPoint x="3559" y="270" />
              <mxPoint x="3559" y="260" />
              <mxPoint x="3560" y="250" />
              <mxPoint x="3450" y="250" />
              <mxPoint x="3450" y="10" />
              <mxPoint x="3292" y="10" />
            </Array>
          </mxGeometry>
        </mxCell>
        <mxCell id="P9T6MN1OVLE_-8v52j5T-3" value="" style="endArrow=block;dashed=1;endFill=0;endSize=12;html=1;rounded=0;exitX=0.346;exitY=0.015;exitDx=0;exitDy=0;exitPerimeter=0;entryX=0.832;entryY=1.032;entryDx=0;entryDy=0;entryPerimeter=0;" parent="1" source="BZMUy_NsCt3AsbC5G0al-21" target="BZMUy_NsCt3AsbC5G0al-7" edge="1">
          <mxGeometry width="160" relative="1" as="geometry">
            <mxPoint x="3440" y="210" as="sourcePoint" />
            <mxPoint x="3600" y="210" as="targetPoint" />
            <Array as="points">
              <mxPoint x="3840" y="130" />
              <mxPoint x="3840" y="-30" />
              <mxPoint x="3373" y="-30" />
            </Array>
          </mxGeometry>
        </mxCell>
        <mxCell id="P9T6MN1OVLE_-8v52j5T-4" value="" style="endArrow=block;dashed=1;endFill=0;endSize=12;html=1;rounded=0;entryX=0.726;entryY=1.004;entryDx=0;entryDy=0;entryPerimeter=0;exitX=0.303;exitY=-0.054;exitDx=0;exitDy=0;exitPerimeter=0;" parent="1" source="BZMUy_NsCt3AsbC5G0al-55" target="BZMUy_NsCt3AsbC5G0al-7" edge="1">
          <mxGeometry width="160" relative="1" as="geometry">
            <mxPoint x="3440" y="210" as="sourcePoint" />
            <mxPoint x="3600" y="210" as="targetPoint" />
            <Array as="points">
              <mxPoint x="3760" y="200" />
              <mxPoint x="3760" y="180" />
              <mxPoint x="3650" y="180" />
              <mxPoint x="3540" y="180" />
              <mxPoint x="3540" y="-20" />
              <mxPoint x="3500" y="-20" />
              <mxPoint x="3410" y="-20" />
              <mxPoint x="3350" y="-20" />
            </Array>
          </mxGeometry>
        </mxCell>
        <mxCell id="P9T6MN1OVLE_-8v52j5T-5" value="" style="endArrow=block;dashed=1;endFill=0;endSize=12;html=1;rounded=0;entryX=0.634;entryY=0.973;entryDx=0;entryDy=0;entryPerimeter=0;exitX=0.348;exitY=-0.01;exitDx=0;exitDy=0;exitPerimeter=0;" parent="1" source="BZMUy_NsCt3AsbC5G0al-17" target="BZMUy_NsCt3AsbC5G0al-7" edge="1">
          <mxGeometry width="160" relative="1" as="geometry">
            <mxPoint x="3440" y="210" as="sourcePoint" />
            <mxPoint x="3600" y="210" as="targetPoint" />
            <Array as="points">
              <mxPoint x="3520" y="-10" />
              <mxPoint x="3400" y="-10" />
              <mxPoint x="3330" y="-10" />
            </Array>
          </mxGeometry>
        </mxCell>
        <mxCell id="P9T6MN1OVLE_-8v52j5T-6" value="Game.GUI.UI" style="shape=folder;fontStyle=1;spacingTop=10;tabWidth=40;tabHeight=14;tabPosition=left;html=1;whiteSpace=wrap;" parent="1" vertex="1">
          <mxGeometry x="2910" y="55" width="430" height="140" as="geometry" />
        </mxCell>
        <mxCell id="P9T6MN1OVLE_-8v52j5T-9" value="GameAudioOptions" style="swimlane;fontStyle=1;align=center;verticalAlign=top;childLayout=stackLayout;horizontal=1;startSize=26;horizontalStack=0;resizeParent=1;resizeParentMax=0;resizeLast=0;collapsible=1;marginBottom=0;whiteSpace=wrap;html=1;" parent="1" vertex="1">
          <mxGeometry x="2950" y="83" width="160" height="34" as="geometry" />
        </mxCell>
        <mxCell id="P9T6MN1OVLE_-8v52j5T-11" value="" style="line;strokeWidth=1;fillColor=none;align=left;verticalAlign=middle;spacingTop=-1;spacingLeft=3;spacingRight=3;rotatable=0;labelPosition=right;points=[];portConstraint=eastwest;strokeColor=inherit;" parent="P9T6MN1OVLE_-8v52j5T-9" vertex="1">
          <mxGeometry y="26" width="160" height="8" as="geometry" />
        </mxCell>
        <mxCell id="P9T6MN1OVLE_-8v52j5T-13" value="GameLevelCompletedOverLayer" style="swimlane;fontStyle=1;align=center;verticalAlign=top;childLayout=stackLayout;horizontal=1;startSize=26;horizontalStack=0;resizeParent=1;resizeParentMax=0;resizeLast=0;collapsible=1;marginBottom=0;whiteSpace=wrap;html=1;" parent="1" vertex="1">
          <mxGeometry x="3130" y="83" width="190" height="34" as="geometry" />
        </mxCell>
        <mxCell id="P9T6MN1OVLE_-8v52j5T-15" value="" style="line;strokeWidth=1;fillColor=none;align=left;verticalAlign=middle;spacingTop=-1;spacingLeft=3;spacingRight=3;rotatable=0;labelPosition=right;points=[];portConstraint=eastwest;strokeColor=inherit;" parent="P9T6MN1OVLE_-8v52j5T-13" vertex="1">
          <mxGeometry y="26" width="190" height="8" as="geometry" />
        </mxCell>
        <mxCell id="P9T6MN1OVLE_-8v52j5T-17" value="GameOverDisplayLayer" style="swimlane;fontStyle=1;align=center;verticalAlign=top;childLayout=stackLayout;horizontal=1;startSize=26;horizontalStack=0;resizeParent=1;resizeParentMax=0;resizeLast=0;collapsible=1;marginBottom=0;whiteSpace=wrap;html=1;" parent="1" vertex="1">
          <mxGeometry x="2950" y="145" width="160" height="34" as="geometry" />
        </mxCell>
        <mxCell id="P9T6MN1OVLE_-8v52j5T-19" value="" style="line;strokeWidth=1;fillColor=none;align=left;verticalAlign=middle;spacingTop=-1;spacingLeft=3;spacingRight=3;rotatable=0;labelPosition=right;points=[];portConstraint=eastwest;strokeColor=inherit;" parent="P9T6MN1OVLE_-8v52j5T-17" vertex="1">
          <mxGeometry y="26" width="160" height="8" as="geometry" />
        </mxCell>
        <mxCell id="P9T6MN1OVLE_-8v52j5T-21" value="GamePauseDisplayLayer" style="swimlane;fontStyle=1;align=center;verticalAlign=top;childLayout=stackLayout;horizontal=1;startSize=26;horizontalStack=0;resizeParent=1;resizeParentMax=0;resizeLast=0;collapsible=1;marginBottom=0;whiteSpace=wrap;html=1;" parent="1" vertex="1">
          <mxGeometry x="3145" y="145" width="160" height="34" as="geometry" />
        </mxCell>
        <mxCell id="P9T6MN1OVLE_-8v52j5T-23" value="" style="line;strokeWidth=1;fillColor=none;align=left;verticalAlign=middle;spacingTop=-1;spacingLeft=3;spacingRight=3;rotatable=0;labelPosition=right;points=[];portConstraint=eastwest;strokeColor=inherit;" parent="P9T6MN1OVLE_-8v52j5T-21" vertex="1">
          <mxGeometry y="26" width="160" height="8" as="geometry" />
        </mxCell>
        <mxCell id="P9T6MN1OVLE_-8v52j5T-25" value="" style="endArrow=block;dashed=1;endFill=0;endSize=12;html=1;rounded=0;exitX=0.502;exitY=0.083;exitDx=0;exitDy=0;exitPerimeter=0;" parent="1" source="P9T6MN1OVLE_-8v52j5T-6" target="BZMUy_NsCt3AsbC5G0al-7" edge="1">
          <mxGeometry width="160" relative="1" as="geometry">
            <mxPoint x="3518" y="93" as="sourcePoint" />
            <mxPoint x="3557" y="-30" as="targetPoint" />
            <Array as="points">
              <mxPoint x="3126" y="-110" />
            </Array>
          </mxGeometry>
        </mxCell>
        <mxCell id="u-OFuJ3zZ4r_R_mBa91--2" value="GameStateBase" style="swimlane;fontStyle=1;align=center;verticalAlign=top;childLayout=stackLayout;horizontal=1;startSize=26;horizontalStack=0;resizeParent=1;resizeParentMax=0;resizeLast=0;collapsible=1;marginBottom=0;whiteSpace=wrap;html=1;" parent="1" vertex="1">
          <mxGeometry x="3594.32" y="10" width="180" height="60" as="geometry" />
        </mxCell>
        <mxCell id="u-OFuJ3zZ4r_R_mBa91--4" value="" style="line;strokeWidth=1;fillColor=none;align=left;verticalAlign=middle;spacingTop=-1;spacingLeft=3;spacingRight=3;rotatable=0;labelPosition=right;points=[];portConstraint=eastwest;strokeColor=inherit;" parent="u-OFuJ3zZ4r_R_mBa91--2" vertex="1">
          <mxGeometry y="26" width="180" height="8" as="geometry" />
        </mxCell>
        <mxCell id="t_Rz3WxDAg7P1XuVsg3u-1" value="+void setGameState" style="text;strokeColor=none;fillColor=none;align=left;verticalAlign=top;spacingLeft=4;spacingRight=4;overflow=hidden;rotatable=0;points=[[0,0.5],[1,0.5]];portConstraint=eastwest;whiteSpace=wrap;html=1;" parent="u-OFuJ3zZ4r_R_mBa91--2" vertex="1">
          <mxGeometry y="34" width="180" height="26" as="geometry" />
        </mxCell>
        <mxCell id="u-OFuJ3zZ4r_R_mBa91--6" value="Extends" style="endArrow=block;endSize=16;endFill=0;html=1;rounded=0;exitX=0.685;exitY=0.076;exitDx=0;exitDy=0;exitPerimeter=0;entryX=0.219;entryY=0.965;entryDx=0;entryDy=0;entryPerimeter=0;" parent="1" source="BZMUy_NsCt3AsbC5G0al-17" target="t_Rz3WxDAg7P1XuVsg3u-1" edge="1">
          <mxGeometry x="-0.0851" width="160" relative="1" as="geometry">
            <mxPoint x="3424.32" y="135" as="sourcePoint" />
            <mxPoint x="3584.32" y="135" as="targetPoint" />
            <Array as="points">
              <mxPoint x="3560" y="150" />
              <mxPoint x="3634" y="150" />
            </Array>
            <mxPoint as="offset" />
          </mxGeometry>
        </mxCell>
        <mxCell id="u-OFuJ3zZ4r_R_mBa91--7" value="Extends" style="endArrow=block;endSize=16;endFill=0;html=1;rounded=0;entryX=0.847;entryY=1.143;entryDx=0;entryDy=0;entryPerimeter=0;" parent="1" source="BZMUy_NsCt3AsbC5G0al-21" target="t_Rz3WxDAg7P1XuVsg3u-1" edge="1">
          <mxGeometry x="0.3455" y="-3" width="160" relative="1" as="geometry">
            <mxPoint x="3672.32" y="232" as="sourcePoint" />
            <mxPoint x="3831.32" y="295" as="targetPoint" />
            <Array as="points">
              <mxPoint x="3855" y="150" />
              <mxPoint x="3747" y="150" />
            </Array>
            <mxPoint as="offset" />
          </mxGeometry>
        </mxCell>
        <mxCell id="u-OFuJ3zZ4r_R_mBa91--8" value="Extends" style="endArrow=block;endSize=16;endFill=0;html=1;rounded=0;entryX=0.558;entryY=1.007;entryDx=0;entryDy=0;entryPerimeter=0;exitX=0.219;exitY=-0.012;exitDx=0;exitDy=0;exitPerimeter=0;" parent="1" source="BZMUy_NsCt3AsbC5G0al-55" target="t_Rz3WxDAg7P1XuVsg3u-1" edge="1">
          <mxGeometry x="0.0903" width="160" relative="1" as="geometry">
            <mxPoint x="3674.32" y="278" as="sourcePoint" />
            <mxPoint x="3784.32" y="297" as="targetPoint" />
            <Array as="points">
              <mxPoint x="3750" y="270" />
              <mxPoint x="3750" y="250" />
              <mxPoint x="3695" y="250" />
            </Array>
            <mxPoint as="offset" />
          </mxGeometry>
        </mxCell>
        <mxCell id="u-OFuJ3zZ4r_R_mBa91--9" value="Extends" style="endArrow=block;endSize=16;endFill=0;html=1;rounded=0;entryX=0.421;entryY=1.079;entryDx=0;entryDy=0;entryPerimeter=0;" parent="1" source="BZMUy_NsCt3AsbC5G0al-60" target="t_Rz3WxDAg7P1XuVsg3u-1" edge="1">
          <mxGeometry width="160" relative="1" as="geometry">
            <mxPoint x="3694.32" y="316" as="sourcePoint" />
            <mxPoint x="3784.32" y="314" as="targetPoint" />
            <Array as="points">
              <mxPoint x="3594" y="250" />
              <mxPoint x="3670" y="250" />
            </Array>
          </mxGeometry>
        </mxCell>
        <mxCell id="u-OFuJ3zZ4r_R_mBa91--10" value="" style="shape=folder;fontStyle=1;spacingTop=10;tabWidth=40;tabHeight=14;tabPosition=left;html=1;whiteSpace=wrap;" parent="1" vertex="1">
          <mxGeometry x="2830" y="249" width="600" height="291" as="geometry" />
        </mxCell>
        <mxCell id="u-OFuJ3zZ4r_R_mBa91--11" value="GameButtonBase" style="swimlane;fontStyle=1;align=center;verticalAlign=top;childLayout=stackLayout;horizontal=1;startSize=26;horizontalStack=0;resizeParent=1;resizeParentMax=0;resizeLast=0;collapsible=1;marginBottom=0;whiteSpace=wrap;html=1;" parent="1" vertex="1">
          <mxGeometry x="3050" y="289" width="155" height="34" as="geometry" />
        </mxCell>
        <mxCell id="u-OFuJ3zZ4r_R_mBa91--13" value="" style="line;strokeWidth=1;fillColor=none;align=left;verticalAlign=middle;spacingTop=-1;spacingLeft=3;spacingRight=3;rotatable=0;labelPosition=right;points=[];portConstraint=eastwest;strokeColor=inherit;" parent="u-OFuJ3zZ4r_R_mBa91--11" vertex="1">
          <mxGeometry y="26" width="155" height="8" as="geometry" />
        </mxCell>
        <mxCell id="u-OFuJ3zZ4r_R_mBa91--16" value="GameVolumeButton" style="swimlane;fontStyle=1;align=center;verticalAlign=top;childLayout=stackLayout;horizontal=1;startSize=26;horizontalStack=0;resizeParent=1;resizeParentMax=0;resizeLast=0;collapsible=1;marginBottom=0;whiteSpace=wrap;html=1;" parent="1" vertex="1">
          <mxGeometry x="3260" y="417.5" width="160" height="34" as="geometry" />
        </mxCell>
        <mxCell id="u-OFuJ3zZ4r_R_mBa91--18" value="" style="line;strokeWidth=1;fillColor=none;align=left;verticalAlign=middle;spacingTop=-1;spacingLeft=3;spacingRight=3;rotatable=0;labelPosition=right;points=[];portConstraint=eastwest;strokeColor=inherit;" parent="u-OFuJ3zZ4r_R_mBa91--16" vertex="1">
          <mxGeometry y="26" width="160" height="8" as="geometry" />
        </mxCell>
        <mxCell id="u-OFuJ3zZ4r_R_mBa91--21" value="GameMenuButton" style="swimlane;fontStyle=1;align=center;verticalAlign=top;childLayout=stackLayout;horizontal=1;startSize=26;horizontalStack=0;resizeParent=1;resizeParentMax=0;resizeLast=0;collapsible=1;marginBottom=0;whiteSpace=wrap;html=1;" parent="1" vertex="1">
          <mxGeometry x="2860" y="420" width="110" height="34" as="geometry" />
        </mxCell>
        <mxCell id="u-OFuJ3zZ4r_R_mBa91--23" value="" style="line;strokeWidth=1;fillColor=none;align=left;verticalAlign=middle;spacingTop=-1;spacingLeft=3;spacingRight=3;rotatable=0;labelPosition=right;points=[];portConstraint=eastwest;strokeColor=inherit;" parent="u-OFuJ3zZ4r_R_mBa91--21" vertex="1">
          <mxGeometry y="26" width="110" height="8" as="geometry" />
        </mxCell>
        <mxCell id="u-OFuJ3zZ4r_R_mBa91--26" value="GameSoundButton" style="swimlane;fontStyle=1;align=center;verticalAlign=top;childLayout=stackLayout;horizontal=1;startSize=26;horizontalStack=0;resizeParent=1;resizeParentMax=0;resizeLast=0;collapsible=1;marginBottom=0;whiteSpace=wrap;html=1;" parent="1" vertex="1">
          <mxGeometry x="3140" y="479.15" width="160" height="34" as="geometry" />
        </mxCell>
        <mxCell id="u-OFuJ3zZ4r_R_mBa91--28" value="" style="line;strokeWidth=1;fillColor=none;align=left;verticalAlign=middle;spacingTop=-1;spacingLeft=3;spacingRight=3;rotatable=0;labelPosition=right;points=[];portConstraint=eastwest;strokeColor=inherit;" parent="u-OFuJ3zZ4r_R_mBa91--26" vertex="1">
          <mxGeometry y="26" width="160" height="8" as="geometry" />
        </mxCell>
        <mxCell id="u-OFuJ3zZ4r_R_mBa91--31" value="GameURMButton" style="swimlane;fontStyle=1;align=center;verticalAlign=top;childLayout=stackLayout;horizontal=1;startSize=26;horizontalStack=0;resizeParent=1;resizeParentMax=0;resizeLast=0;collapsible=1;marginBottom=0;whiteSpace=wrap;html=1;" parent="1" vertex="1">
          <mxGeometry x="2940" y="479.15" width="160" height="34" as="geometry" />
        </mxCell>
        <mxCell id="u-OFuJ3zZ4r_R_mBa91--33" value="" style="line;strokeWidth=1;fillColor=none;align=left;verticalAlign=middle;spacingTop=-1;spacingLeft=3;spacingRight=3;rotatable=0;labelPosition=right;points=[];portConstraint=eastwest;strokeColor=inherit;" parent="u-OFuJ3zZ4r_R_mBa91--31" vertex="1">
          <mxGeometry y="26" width="160" height="8" as="geometry" />
        </mxCell>
        <mxCell id="u-OFuJ3zZ4r_R_mBa91--35" value="&#xa;&lt;span style=&quot;color: rgb(0, 0, 0); font-family: Helvetica; font-size: 12px; font-style: normal; font-variant-ligatures: normal; font-variant-caps: normal; font-weight: 700; letter-spacing: normal; orphans: 2; text-align: center; text-indent: 0px; text-transform: none; widows: 2; word-spacing: 0px; -webkit-text-stroke-width: 0px; background-color: rgb(251, 251, 251); text-decoration-thickness: initial; text-decoration-style: initial; text-decoration-color: initial; float: none; display: inline !important;&quot;&gt;Game.GUI.ui.buttons&lt;/span&gt;&#xa;&#xa;" style="text;align=center;fontStyle=1;verticalAlign=middle;spacingLeft=3;spacingRight=3;strokeColor=none;rotatable=0;points=[[0,0.5],[1,0.5]];portConstraint=eastwest;html=1;" parent="1" vertex="1">
          <mxGeometry x="2870" y="279" width="80" height="26" as="geometry" />
        </mxCell>
        <mxCell id="u-OFuJ3zZ4r_R_mBa91--38" value="Extends" style="endArrow=block;endSize=16;endFill=0;html=1;rounded=0;entryX=0.282;entryY=0.757;entryDx=0;entryDy=0;entryPerimeter=0;" parent="1" source="u-OFuJ3zZ4r_R_mBa91--21" target="u-OFuJ3zZ4r_R_mBa91--13" edge="1">
          <mxGeometry width="160" relative="1" as="geometry">
            <mxPoint x="3330" y="519" as="sourcePoint" />
            <mxPoint x="3490" y="519" as="targetPoint" />
            <Array as="points">
              <mxPoint x="2915" y="400" />
              <mxPoint x="3094" y="400" />
            </Array>
          </mxGeometry>
        </mxCell>
        <mxCell id="u-OFuJ3zZ4r_R_mBa91--39" value="Extends" style="endArrow=block;endSize=16;endFill=0;html=1;rounded=0;entryX=0.539;entryY=0.491;entryDx=0;entryDy=0;entryPerimeter=0;" parent="1" source="u-OFuJ3zZ4r_R_mBa91--26" target="u-OFuJ3zZ4r_R_mBa91--13" edge="1">
          <mxGeometry x="0.2869" width="160" relative="1" as="geometry">
            <mxPoint x="2949" y="338.15" as="sourcePoint" />
            <mxPoint x="3132.925" y="269.99800000000016" as="targetPoint" />
            <Array as="points">
              <mxPoint x="3220" y="459.15" />
              <mxPoint x="3133" y="459.15" />
            </Array>
            <mxPoint as="offset" />
          </mxGeometry>
        </mxCell>
        <mxCell id="u-OFuJ3zZ4r_R_mBa91--40" value="Extends" style="endArrow=block;endSize=16;endFill=0;html=1;rounded=0;entryX=0.42;entryY=0.391;entryDx=0;entryDy=0;entryPerimeter=0;" parent="1" source="u-OFuJ3zZ4r_R_mBa91--31" target="u-OFuJ3zZ4r_R_mBa91--13" edge="1">
          <mxGeometry width="160" relative="1" as="geometry">
            <mxPoint x="3107" y="338.15" as="sourcePoint" />
            <mxPoint x="3114.635" y="271.198" as="targetPoint" />
            <Array as="points">
              <mxPoint x="3020" y="459.15" />
              <mxPoint x="3115" y="459.15" />
            </Array>
          </mxGeometry>
        </mxCell>
        <mxCell id="u-OFuJ3zZ4r_R_mBa91--41" value="Extends" style="endArrow=block;endSize=16;endFill=0;html=1;rounded=0;entryX=0.692;entryY=0.662;entryDx=0;entryDy=0;entryPerimeter=0;" parent="1" source="u-OFuJ3zZ4r_R_mBa91--16" target="u-OFuJ3zZ4r_R_mBa91--13" edge="1">
          <mxGeometry width="160" relative="1" as="geometry">
            <mxPoint x="3286" y="389" as="sourcePoint" />
            <mxPoint x="3172" y="333" as="targetPoint" />
            <Array as="points">
              <mxPoint x="3340" y="400" />
              <mxPoint x="3157" y="400" />
            </Array>
          </mxGeometry>
        </mxCell>
        <mxCell id="u-OFuJ3zZ4r_R_mBa91--42" value="&#xa;&lt;span style=&quot;color: rgb(0, 0, 0); font-family: Helvetica; font-size: 12px; font-style: normal; font-variant-ligatures: normal; font-variant-caps: normal; font-weight: 700; letter-spacing: normal; orphans: 2; text-align: center; text-indent: 0px; text-transform: none; widows: 2; word-spacing: 0px; -webkit-text-stroke-width: 0px; background-color: rgb(251, 251, 251); text-decoration-thickness: initial; text-decoration-style: initial; text-decoration-color: initial; float: none; display: inline !important;&quot;&gt;Game.GUI&lt;/span&gt;&#xa;&#xa;" style="text;align=center;fontStyle=1;verticalAlign=middle;spacingLeft=3;spacingRight=3;strokeColor=none;rotatable=0;points=[[0,0.5],[1,0.5]];portConstraint=eastwest;html=1;" parent="1" vertex="1">
          <mxGeometry x="2810" y="10" width="80" height="26" as="geometry" />
        </mxCell>
        <mxCell id="u-OFuJ3zZ4r_R_mBa91--43" value="" style="endArrow=block;dashed=1;endFill=0;endSize=12;html=1;rounded=0;" parent="1" source="u-OFuJ3zZ4r_R_mBa91--11" target="BZMUy_NsCt3AsbC5G0al-5" edge="1">
          <mxGeometry width="160" relative="1" as="geometry">
            <mxPoint x="3187" y="65" as="sourcePoint" />
            <mxPoint x="3280" y="-60" as="targetPoint" />
            <Array as="points">
              <mxPoint x="2790" y="306" />
              <mxPoint x="2790" y="-285" />
            </Array>
          </mxGeometry>
        </mxCell>
        <mxCell id="1k6VjR7NMxpP_8g_BLnJ-1" value="" style="shape=folder;fontStyle=1;spacingTop=10;tabWidth=40;tabHeight=14;tabPosition=left;html=1;whiteSpace=wrap;" parent="1" vertex="1">
          <mxGeometry x="3569.32" y="-180" width="230" height="110" as="geometry" />
        </mxCell>
        <mxCell id="1k6VjR7NMxpP_8g_BLnJ-2" value="&amp;lt;enum&amp;gt;&amp;nbsp;GameState" style="swimlane;fontStyle=1;align=center;verticalAlign=top;childLayout=stackLayout;horizontal=1;startSize=26;horizontalStack=0;resizeParent=1;resizeParentMax=0;resizeLast=0;collapsible=1;marginBottom=0;whiteSpace=wrap;html=1;" parent="1" vertex="1">
          <mxGeometry x="3599.32" y="-128" width="170" height="34" as="geometry">
            <mxRectangle x="900" y="840" width="110" height="40" as="alternateBounds" />
          </mxGeometry>
        </mxCell>
        <mxCell id="1k6VjR7NMxpP_8g_BLnJ-3" value="" style="line;strokeWidth=1;fillColor=none;align=left;verticalAlign=middle;spacingTop=-1;spacingLeft=3;spacingRight=3;rotatable=0;labelPosition=right;points=[];portConstraint=eastwest;strokeColor=inherit;" parent="1k6VjR7NMxpP_8g_BLnJ-2" vertex="1">
          <mxGeometry y="26" width="170" height="8" as="geometry" />
        </mxCell>
        <mxCell id="1k6VjR7NMxpP_8g_BLnJ-6" value="&#xa;&lt;span style=&quot;color: rgb(0, 0, 0); font-family: Helvetica; font-size: 12px; font-style: normal; font-variant-ligatures: normal; font-variant-caps: normal; font-weight: 700; letter-spacing: normal; orphans: 2; text-align: center; text-indent: 0px; text-transform: none; widows: 2; word-spacing: 0px; -webkit-text-stroke-width: 0px; background-color: rgb(251, 251, 251); text-decoration-thickness: initial; text-decoration-style: initial; text-decoration-color: initial; float: none; display: inline !important;&quot;&gt;Game.state&lt;/span&gt;&#xa;&#xa;" style="text;align=center;fontStyle=1;verticalAlign=middle;spacingLeft=3;spacingRight=3;strokeColor=none;rotatable=0;points=[[0,0.5],[1,0.5]];portConstraint=eastwest;html=1;" parent="1" vertex="1">
          <mxGeometry x="3569.32" y="-160" width="80" height="26" as="geometry" />
        </mxCell>
        <mxCell id="t_Rz3WxDAg7P1XuVsg3u-2" style="edgeStyle=orthogonalEdgeStyle;rounded=0;orthogonalLoop=1;jettySize=auto;html=1;exitX=0.5;exitY=0;exitDx=0;exitDy=0;" parent="1" source="u-OFuJ3zZ4r_R_mBa91--2" target="1k6VjR7NMxpP_8g_BLnJ-2" edge="1">
          <mxGeometry relative="1" as="geometry">
            <Array as="points">
              <mxPoint x="3684" y="-20" />
              <mxPoint x="3684" y="-20" />
            </Array>
          </mxGeometry>
        </mxCell>
      </root>
    </mxGraphModel>
  </diagram>
</mxfile>
